<svg xmlns="http://www.w3.org/2000/svg" viewBox="0 0 99 23.2"><path d="M.9 13.3c0-5 3.6-8.2 8.3-8.2 2.1 0 4 .6 5.4 2l-2.3 3.2c-.9-.9-1.8-1.3-3-1.3-2.2 0-4 1.5-4 4.3 0 2.9 1.7 4.1 3.8 4.1 1.1 0 2.1-.3 3.2-1.3l2.2 3.1c-1.5 1.4-3.4 2.2-5.8 2.2-4.4.1-7.8-2.9-7.8-8.1zm30.8-7.7v15.5h-4.2l-.2-2c-1.2 1.7-2.8 2.4-4.9 2.4-3.1 0-5.4-2.2-5.4-6.6V5.6h4.5v8.6c0 2.4 1 3.3 2.7 3.3 1.7 0 3-1 3-3.7V5.6h4.5zM45 5.3v4.5c-2.7-.3-5.2.6-5.2 3.7v7.6h-4.5V5.6h4.2l.2 2.7c1.4-2.4 3.4-3 5.3-3zm11.4 15.8l-.3-1.9c-1 1.4-2.6 2.2-4.6 2.2-3.1 0-5.4-1.7-5.4-4.9 0-3 2.6-4.9 6.8-4.9 1.2 0 2.1.2 2.9.4v-.4c0-1.7-1.2-2.8-3.2-2.8-1.6 0-2.8.5-4.1 1.3L47 6.9c1.7-1.1 3.8-1.7 6-1.7 4.3 0 7 2.4 7 6.4v5.3c0 1.5.1 3.1.3 4.3h-3.9zm-.5-5.8v-.6c-.7-.2-1.5-.3-2.3-.3-2.3 0-3.1.8-3.1 2 0 1 .7 1.7 2.2 1.7 1.7 0 3.2-1 3.2-2.8zm18.6 5c-1.3.8-2.7 1.2-4.2 1.2-3.1 0-5.7-1.4-5.7-5.8V9.4h-3l.9-3.8h2.1V1.7h4.5v3.9h5v3.8h-5v6.3c0 1.3.7 1.9 1.9 1.9.8 0 1.4-.2 2.1-.6l1.4 3.3zm16.8-5.8h-11c.4 2.1 1.8 3.1 4 3.1 1.4 0 2.7-.4 4-1.5l2.1 3c-1.7 1.6-3.8 2.4-6.5 2.4-4.9 0-8.2-3.1-8.2-8.1 0-5.4 3.9-8.3 8-8.3 4.4 0 7.6 2.8 7.6 8.6.1.3.1.6 0 .8zm-10.9-2.8h6.4c-.3-1.8-1.3-3-3.1-3-1.7 0-2.9 1.1-3.3 3zm12.1 7.1c0-1.5 1.2-2.7 2.8-2.7s2.8 1.1 2.8 2.7-1.2 2.7-2.8 2.7-2.8-1.1-2.8-2.7z"/></svg>