<svg width="1511" height="399" viewBox="0 0 1511 399" fill="none" xmlns="http://www.w3.org/2000/svg"><path d="M387.503 145.416a2.562 2.562 0 012.555-2.556h60.456c17.341 0 32.462 3.764 45.362 11.279 12.887 7.528 22.759 17.571 29.6 30.169 6.841 12.585 10.262 26.489 10.262 41.685 0 15.196-3.421 29.128-10.262 41.796-6.841 12.667-16.713 22.724-29.6 30.169-12.886 7.445-28.007 11.168-45.362 11.168h-60.456a2.553 2.553 0 01-2.555-2.556V145.416zm59.45 131.415c10.5 0 19.45-2.333 26.849-7.001 7.4-4.667 12.929-10.876 16.601-18.64 3.658-7.751 5.487-16.155 5.487-25.169 0-9.029-1.829-17.419-5.487-25.169-3.658-7.751-9.187-13.974-16.601-18.641-7.399-4.667-16.349-7.001-26.849-7.001h-18.22a2.565 2.565 0 00-2.569 2.556v96.551a2.565 2.565 0 002.569 2.556h18.22v-.042zm252.636 21.488c-11.058-9.876-16.867-23.516-17.383-40.934a2.568 2.568 0 012.569-2.653h33.579c1.354 0 2.485 1.055 2.555 2.403.405 7.875 2.806 14.126 7.218 18.738 4.859 5.069 11.491 7.597 19.938 7.597 7.162 0 12.691-1.583 16.587-4.75 3.895-3.167 5.85-7.681 5.85-13.543 0-5.07-1.466-9.14-4.412-12.223-2.946-3.084-8.238-6.14-15.875-9.14l-30.088-11.64c-11.142-4.111-19.575-10.015-25.3-17.696-5.724-7.681-8.6-16.904-8.6-27.669 0-9.654 2.429-18.169 7.274-25.531 4.859-7.361 11.77-13.056 20.776-17.098 8.977-4.042 19.449-6.056 31.386-6.056 12.092 0 22.759 2.18 31.988 6.528 9.229 4.361 16.391 10.487 21.487 18.404 4.65 7.251 7.191 15.613 7.582 25.1a2.576 2.576 0 01-2.569 2.681h-33.565a2.562 2.562 0 01-2.555-2.403c-.377-6.584-2.346-11.724-5.906-15.404-3.979-4.112-9.704-6.182-17.188-6.182-6.213 0-11.099 1.459-14.688 4.39-3.588 2.931-5.375 6.931-5.375 12.001 0 4.598 1.745 8.515 5.25 11.751 3.504 3.25 9.382 6.528 17.662 9.862l27.687 10.918c11.462 4.431 19.937 10.528 25.425 18.293 5.487 7.765 8.237 17.266 8.237 28.503 0 10.292-2.541 19.321-7.637 27.072-5.096 7.764-12.259 13.737-21.488 17.932-9.229 4.195-19.98 6.292-32.224 6.292-20.511.014-36.581-5.167-48.197-15.543zm128.988-155.445h33.551a2.565 2.565 0 012.569 2.556v62.117a2.565 2.565 0 002.569 2.556h52.651a2.552 2.552 0 002.555-2.556v-63.395a2.565 2.565 0 012.569-2.556h33.552a2.553 2.553 0 012.555 2.556v162.432a2.562 2.562 0 01-2.555 2.556h-33.552a2.565 2.565 0 01-2.569-2.556v-60.936a2.561 2.561 0 00-2.555-2.556h-52.651a2.565 2.565 0 00-2.569 2.556v60.922a2.565 2.565 0 01-2.569 2.556h-33.551a2.565 2.565 0 01-2.569-2.556V145.416a2.57 2.57 0 012.569-2.542zm152.757-2.556h33.546c1.41 0 2.56 1.139 2.56 2.556v129.498a2.562 2.562 0 002.57 2.556h56.95c1.41 0 2.57 1.139 2.57 2.556v29.1c0 1.403-1.15 2.542-2.57 2.542h-95.626c-1.41 0-2.569-1.139-2.569-2.542v-163.71c.014-1.403 1.159-2.556 2.569-2.556zm277.886 2.556h35.54c.95 0 1.81.514 2.26 1.347l52.47 97.301c1.25 2.334 4.81 1.445 4.81-1.208v-94.898a2.568 2.568 0 012.57-2.556h31.88c1.41 0 2.57 1.139 2.57 2.556V306.57a2.568 2.568 0 01-2.57 2.556h-35.53c-.95 0-1.82-.514-2.27-1.348l-52.47-97.3c-1.25-2.334-4.81-1.445-4.81 1.208v94.898a2.568 2.568 0 01-2.57 2.556h-31.88a2.566 2.566 0 01-2.57-2.556V145.416a2.576 2.576 0 012.57-2.542zm151.44 0h97.05c1.41 0 2.57 1.139 2.57 2.556v25.78a2.562 2.562 0 01-2.57 2.556h-58.37a2.566 2.566 0 00-2.57 2.556v32.642a2.56 2.56 0 002.57 2.555h58.37c1.41 0 2.57 1.139 2.57 2.556v25.058a2.55 2.55 0 01-2.57 2.542h-58.37a2.566 2.566 0 00-2.57 2.556v31.475a2.55 2.55 0 002.57 2.542h58.37c1.41 0 2.57 1.139 2.57 2.556v25.78a2.562 2.562 0 01-2.57 2.556h-97.05a2.566 2.566 0 01-2.57-2.556V145.416c0-1.403 1.15-2.542 2.57-2.542zM679.884 306.653l-55.541-162.515a1.88 1.88 0 00-1.788-1.264h-36.217a1.89 1.89 0 00-1.787 1.278l-55.304 162.501c-.419 1.209.488 2.473 1.787 2.473h36.259a2.583 2.583 0 002.472-1.861l6.995-24.614h55.611l6.995 24.614a2.57 2.57 0 002.471 1.861h36.26c1.284 0 2.206-1.264 1.787-2.473zm-93.644-57.311l16.517-58.061c.517-1.819 3.114-1.819 3.63 0l16.517 58.061a2.467 2.467 0 01-2.387 3.14h-31.889a2.468 2.468 0 01-2.388-3.14zm655.54 57.311l-55.53-162.515a1.877 1.877 0 00-1.79-1.264h-36.21c-.81 0-1.53.514-1.79 1.278l-55.3 162.501c-.42 1.209.48 2.473 1.78 2.473h36.26c1.15 0 2.15-.764 2.47-1.861l7-24.614h55.61l6.99 24.614a2.578 2.578 0 002.48 1.861h36.26c1.28 0 2.19-1.264 1.77-2.473zm-93.63-57.311l16.52-58.061c.51-1.819 3.11-1.819 3.63 0l16.51 58.061a2.465 2.465 0 01-2.38 3.14h-31.89c-1.65 0-2.84-1.556-2.39-3.14zM297.996 128.28c0-2.473-2.494-4.945-5.993-5.935l-41.932-15.324c-6.983-2.968-14.971.494-14.971 5.447v174.209c0 2.473 2.494 5.44 4.988 6.429l42.93 15.325c6.491 2.473 14.978-.989 14.978-6.436V128.28zm-78.372-60.874c0-2.48-2.494-4.953-5.992-5.942l-41.926-15.325c-6.99-2.968-14.977.495-14.977 5.447v105.902c0 2.473 2.494 5.441 4.988 6.437l42.93 15.325c6.491 2.479 14.977-.99 14.977-6.43V67.406zm0 190.558c0-2.473-2.494-4.946-5.992-5.935l-41.926-15.325c-6.99-2.968-14.977.494-14.977 5.447v105.902c0 2.473 2.494 5.44 4.988 6.43l42.93 15.324c6.491 2.48 14.977-.989 14.977-6.436V257.964zm-78.371 21.287c0-2.473-2.494-4.952-5.993-5.942l-41.925-15.324c-7.025-2.968-14.977.494-14.977 5.447v112.847c0 2.473 2.493 5.447 4.987 6.436l42.93 15.325c6.491 2.48 14.978-.989 14.978-6.429v-112.36zm0-256.893c0-2.473-2.494-4.946-5.993-5.935L93.335 1.098c-7.025-2.968-14.977.494-14.977 5.447v112.847c0 2.48 2.493 5.447 4.987 6.436l42.93 15.325c6.491 2.473 14.978-.989 14.978-6.436V22.357zm-78.358 4.458c0-2.473-2.494-4.953-5.992-5.942L14.977 5.549C7.987 2.581 0 6.044 0 10.996v361.312c0 2.473 2.494 5.441 4.995 6.43l42.923 15.325c6.491 2.472 14.977-.99 14.977-6.437V26.816z" fill="#0E353D"/></svg>