<svg version="1.0" xmlns="http://www.w3.org/2000/svg" width="660" height="200" viewBox="0 0 495 150"><path d="M135.8 36.9c-29.4 9.4-38.2 45.3-16.1 66.2 9.4 8.9 22.2 12.7 36.1 10.8 14-1.9 27.4-12.1 32.3-24.6 3.2-8.1 3.3-21.4.1-29.5-2.5-6.3-9.5-14.7-15.3-18.4-10.1-6.3-25.5-8.2-37.1-4.5zM156 59.2c6.2 3.2 9.3 9.1 8.8 17.1-1.1 15.9-20 21.5-28.6 8.5-5.8-8.9-3.1-20.8 5.8-25.5 5.4-2.9 8.4-2.9 14-.1z"/><path d="M42.5 37.2c-.3.7-.4 18-.3 38.3l.3 37 12.8.3 12.7.3V88h36V68H68V58h39.1l-.3-10.8-.3-10.7-31.8-.3c-24.9-.2-31.9 0-32.2 1zm151.7 26c.3 27 .3 27.4 2.9 32.8 3.3 6.9 7.9 11.5 14.9 14.9 5.1 2.4 6.5 2.6 19.5 2.6 13.9 0 14.1 0 20.7-3.3 7.7-3.8 11.9-8.3 15-16.2 2-5.1 2.1-7.4 2.2-31.5l.1-26-12.7-.3-12.7-.3-.3 24.3c-.3 21.5-.5 24.6-2.1 27-3.1 4.5-10.3 6.1-15.7 3.3-5.6-2.9-6-5-6-31V36h-26.1l.3 27.2zm79.3-26c-.3.7-.4 18-.3 38.3l.3 37 12.8.3 12.7.3V77.8l14.2 17.6 14.2 17.6H350V36h-25l-.2 16.9-.3 16.9L311 53.1l-13.5-16.6-11.8-.3c-8.8-.2-11.9.1-12.2 1zM355 74.5v38.7l20.8-.4c17.8-.4 21.6-.8 27.4-2.6 14.2-4.7 22.6-13.8 25.4-27.6 3.6-17.4-3.1-33.2-17.1-40.3-8.9-4.6-13.8-5.4-35.7-6l-20.8-.6v38.8zm41-13.3c5.9 3 8.2 7.4 7.7 14.6-.7 9.2-6.5 14.1-17.4 14.5l-5.8.2-.3-15.8-.3-15.7h5.9c4 0 7.1.7 10.2 2.2zm36.8 28.4c-8 4.3-7.6 17.9.6 21.8 7.3 3.4 14.9.4 17.5-7 1.8-5.2.9-8.8-3.4-13.1-2.7-2.7-4-3.3-7.6-3.3-2.4.1-5.6.7-7.1 1.6z"/></svg>