<svg xmlns="http://www.w3.org/2000/svg" viewBox="0 0 109 40" width="109" height="40" style="width:100%;height:100%"><defs><clipPath id="b"><path d="M0 0h109v40H0z"/></clipPath><clipPath id="c"><path d="M0 0h987v290H0z"/></clipPath><clipPath id="d"><path d="M0 0h500v500H0z"/></clipPath><clipPath id="f"><path d="M0 0h987v290H0z"/></clipPath><clipPath id="g"><path fill="#fff" d="M919 39L47.77 38v210.859l871.23 1V39"/></clipPath><filter id="a" filterUnits="objectBoundingBox" x="0%" y="0%" width="100%" height="100%"><feComponentTransfer in="SourceGraphic"><feFuncA type="table" tableValues="1.0 0.0"/></feComponentTransfer></filter><mask id="e"><g filter="url(#a)"><path fill="#151515" d="M99.399-172.164H-99.399L-198.798 0l99.399 172.164H99.399L198.798 0 99.399-172.164z" transform="translate(249.78 145.19) scale(.62543)" display="block"/></g></mask></defs><g clip-path="url(#b)"><g clip-path="url(#c)" transform="translate(-16.954 -.774) scale(.14327)" display="block"><g clip-path="url(#d)" transform="matrix(.628 0 0 .628 92.5 -12)" display="block"><path d="M255.837 320.783H132.509L71.342 214.77l-20.367 35.227 61.167 106.013h123.395l20.3-35.227zM244.163 179.21h123.329l61.166 106.013 20.367-35.227-61.168-106.013H264.463l-20.3 35.227z" display="block"/><path d="M191.62 290.467l-61.632-106.809 61.166-106.013h-40.667L89.32 183.658l61.632 106.809h40.668zm116.76-80.935l61.631 106.809-61.167 106.013h40.667l61.167-106.013-61.631-106.809H308.38z" display="block"/><path d="M185.78 219.681l61.698-106.809h122.4l-20.367-35.227h-122.4l-61.697 106.809 20.366 35.227zm128.437 60.638l-61.698 106.809H130.12l20.367 35.227h122.399l61.698-106.809-20.367-35.227z" display="block"/></g><g mask="url(#e)" display="block"><g clip-path="url(#f)" transform="translate(-.064 .003) scale(.99998)"><g clip-path="url(#g)"><path d="M514.745 152.068c0 24.09-8.346 33.9-28.862 33.9-18.313 0-26.612-8.129-27.764-27.127v-2.623h-22.245v2.99c1.152 31.276 17.472 46.497 49.846 46.497 34.009 0 51.27-17.947 51.27-53.318V88.519h-22.245v63.55zm324.569-54.516c9.289 0 13.954-4.57 13.954-13.648 0-9.343-4.353-13.486-14.116-13.486-9.655 0-13.954 4.143-13.954 13.486 0 9.709 4.089 13.648 14.116 13.648zm10.651 13.012h-22.252v91.992h22.252v-91.992zm-66.281 2.309c-7.14-3.885-15.689-5.77-26.184-5.77h-.997c-6.93 0-30.273 1.262-42.66 17.527l-1.05-14.069h-19.208v91.998h21.987v-48.28c0-10.075 6.19-23.357 23.615-27.71.264-.054.576-.156.84-.21.265-.055.523-.102.787-.156a13 13 0 011.417-.265l.468-.101c.576-.109 1.105-.156 1.681-.265l.366-.054c.577-.054 1.207-.102 1.784-.156l.42-.054a19.794 19.794 0 011.79-.102h.468c.786-.054 1.58-.054 2.312-.054 15.058 0 24.448 4.99 28.808 15.275 2.15 4.617 3.2 10.279 3.2 17.364v44.816h21.777v-49.06c0-18.632-7.715-33.012-21.621-40.674zM647.351 158.84c0 10.075-6.19 23.357-23.615 27.71-.264.054-.576.156-.84.21-.265.054-.523.102-.787.156a13 13 0 01-1.417.265l-.468.101c-.576.109-1.105.156-1.681.265l-.366.054c-.577.054-1.207.102-1.783.156l-.42.054c-.577.054-1.214.102-1.79.102h-.469c-.786.054-1.58.054-2.312.054-15.058 0-24.448-4.983-28.808-15.268-2.15-4.618-3.2-10.286-3.2-17.37v-44.762h-21.777v49.06c0 18.577 7.661 33.011 21.621 40.619 7.14 3.885 15.689 5.77 26.184 5.77h.943c6.929 0 30.28-1.262 42.666-17.527l1.045 14.069h19.207v-91.991h-21.933v48.273z" display="block"/></g></g></g></g></g></svg>