<svg version="1.0" xmlns="http://www.w3.org/2000/svg" width="900" height="266.667" viewBox="0 0 675 200"><path d="M40.2 30.3c-9.5 16.6-17.3 30.6-17.3 31.2 0 .5 7.8 14.6 17.3 31.2l17.3 30.2 11.8.1h11.8l-1.2-2.3c-.7-1.2-8.6-14.9-17.6-30.5C53.4 74.6 46 61.7 46 61.5c0-.2 7.4-13.1 16.3-28.7 9-15.6 16.9-29.3 17.6-30.6L81.1 0H69.3L57.5.1 40.2 30.3z"/><path d="M84.6 30.5C74.9 47.2 67 61.5 67 62c0 .6 2.5 5.4 5.6 10.6l5.6 9.6 1.7-2.9c1-1.5 9.1-15.5 18-31.1L114.2 20h34.9c19.2 0 34.9-.3 34.9-.8 0-.4-2.4-4.8-5.3-9.7l-5.3-9-35.6-.3-35.6-.2-17.6 30.5zm567.7 2c-8.2 3.5-8.5 19.1-.4 22.5 5 2 13.7.9 16.8-2.3 3.6-3.6 4.3-11.8 1.4-16.4-3.1-4.9-11.3-6.7-17.8-3.8z"/><path d="M118.3 48.3c-2.9 5.2-5.3 9.7-5.3 10 0 .4 15.9.7 35.4.7h35.3l16.8 29.2c9.3 16.1 17.3 29.8 17.9 30.5.8.9 2.5-1.3 6.8-8.7l5.7-10-17.6-30.5L195.7 39h-72.2l-5.2 9.3zM360 81.8c0 28.1-.3 34.8-1.6 39.3-3.5 11.9-10.2 16.3-24.9 16.2-9.6 0-14.1-1.3-18.4-5.4-3.3-3.1-6.2-10-6.8-16.5l-.6-5.4H288v5.7c0 16.6 9.3 31.3 22.8 36.3 14.2 5.4 34.3 5 46.8-.9 7.3-3.4 14.2-10 17.4-16.6 4.9-10.1 5.2-13 5.7-50.8l.5-35.7H360v33.8zm211.3-15.7c-9.2 1.5-20.3 6.8-24.7 11.8-1.1 1.1-2.3 2.1-2.7 2.1-.4 0-.9-2.6-1.1-5.8l-.3-5.7-8.7-.3-8.8-.3V153h19.9l.3-25.8c.3-24.2.4-25.9 2.5-29.8 5.2-9.7 14.3-14.6 28.5-15.2 11.9-.5 18.3 1.3 23.8 6.8 6.5 6.5 7.3 10.2 7.8 38.7l.4 25.3H628v-23.3c0-12.7-.5-26.3-1-30.1-1.9-13.1-9.4-24.2-20-29.6-8.6-4.4-23.2-6-35.7-3.9zM400 94.7c0 28.3.5 32.6 4.9 41.1 3.1 6.1 10.2 12.9 16.5 15.8 17.6 8 44.4 4.8 58.3-7l4-3.5.7 5.9.7 6H502V67.9l-9.7.3-9.8.3-.5 26-.5 26-2.8 4.8c-5.5 9.3-15.8 14.1-30.2 14-13.5-.2-20.7-3.9-25.2-13.1l-2.8-5.7-.3-26.3-.3-26.2H400v26.7zm248.7-26c-.4.3-.7 19.5-.7 42.5V153h21V68h-9.8c-5.4 0-10.2.3-10.5.7z"/><path d="M151.1 79.2c.7 1.3 8.6 15 17.5 30.6 9 15.6 16.4 28.5 16.4 28.6 0 .2-7.9 14-17.5 30.7L150 199.5l11.1.3c6.2.1 11.7-.2 12.2-.7.5-.5 8.7-14.3 18.1-30.8l17.2-29.8-14.9-25.8c-8.2-14.3-16.1-28-17.6-30.5l-2.7-4.7-11.8-.3-11.7-.3 1.2 2.3zM5.8 90L0 99.9l17.6 30.5L35.2 161h72.3l5.3-9.3c2.8-5.2 5.2-9.6 5.2-10 0-.4-15.9-.7-35.4-.7H47.2l-16.7-28.9c-9.1-15.9-17.2-29.6-17.8-30.5-1-1.3-2.1 0-6.9 8.4z"/><path d="M134.6 149l-17.9 31H81.9c-19.2 0-34.9.3-34.9.7 0 .5 2.4 4.8 5.3 9.8l5.3 9 35.5.3 35.6.2 17.7-30.6c9.7-16.8 17.6-30.9 17.6-31.4 0-.9-9.6-18-10.8-19.2-.4-.4-8.8 13.2-18.6 30.2z"/></svg>