<svg xmlns="http://www.w3.org/2000/svg" viewBox="0 0 652 652"><path d="M132.8 543.7c1.6 1.5 8-.6 9.7.6 1.5 1.1 0 7.1-.7 7.2-142.3 25.2-82-127.9-127.6-231.4-5.3 2.4-11.2 3.6-17 3.5-23.8 0-43-19.2-43-47v-3.2c.2-1.5.9-1.7 1.3-3.1 3-12.1 11.1-22.3 22.2-27.9C.1 231.5 25 240.8 46.5 273c39 58.2 35 223.6 86.3 270.7zm559.4-279.8c.1.4.6-.4.6 1.7 0 23.9-12.8 46.3-40.8 46.3-4.5 0-8.9-.8-13.1-2.5-41.8 112.9 33.4 282.8-137.6 238.4-183.6-47.7-280.9-9.9-280.9-9.9s-2.1-4.5 0-6.5c2.1-1.9 9.6-3.2 12.4-5.1 27.1-17.9 88.9-33.1 167.8-30.9 102.1 3.7 160.9 49 176.5-50.5.7-3.6 1.3-7.3 1.8-11.1-20.7 32.2-62.3 43.6-79.8 12.7-4.3-7.5-7.6-17.2-9.9-28.2-10.7 22.8-28.9 48.4-56.6 46.9-17.5-1-23.3-13.2-22.6-39.5.4-18.3 1.3-53.2 2-70.9 1.9-49.5-27.3-35.7-31.8-1.1-1.8 13.9-3.2 88.5 0 112.2-46.4 7.3-55.9-6.7-56.5-35.8-26.2 69.9-70 67.6-82.5 21.1-7.5 31.2-27.6 61.7-47.4 61.7-32 0-63.5-50.1-115.6-183.2-.6-3-.6-6 0-9 .1-.5 2.9 5.9 3.4 5.7C213 297.3 340.5 225.2 344.2 160.2c-5.8 3.3-12.2 5.5-18.8 6.5-28.8 4-55.5-16.6-59.5-45.4-.7-4.8-.8-9.7-.5-14.6.1-1.1.6-.7.6-.7 3.5-22.9 21.5-40.7 44.4-44.1 28.2-3.8 55.2 19.2 63.9 57 1.2 5.7 2.1 11.5 2.4 17.3 0 68-52.4 155.8-222.1 223.1 31.1 55.3 52.7 96.4 70.3 89.3 10.1-4.1 12.7-23.4 10.1-97.3l52.3-29.8c-5.1 85.5 10.5 115 24.8 104.8 11.5-8.1 18.1-33.5 17.9-73.5-.6-32.1-3-49.7-3-49.7 33.5-33 49.7-30.1 49.9 11.5 25.7-87.5 89.1-67.8 85.2 11.7-3.9 79.5.4 94.8 7.2 94.8 9.3 0 22-16.7 21.1-34.1-1.7-44.2 4.5-95.5 31-118 37-31.5 67.8-2.2 79.3 15.2.5-1.3 1-2.5 1.5-3.7 25.1-56.5 57.4-55.1 76.4-40 7.2 6 11.9 14.3 13.6 23.4zm-99.5 50.4c-3-9.9-21.4-30.1-39.4-12.4-20.4 20.1-22.7 81.6-14.6 100.7 7.6 18 35.8 15.1 44.1-6.6 2.2-27.4 4-54.6 9.9-81.7z" fill="#eb8d00"/><linearGradient id="a" gradientUnits="userSpaceOnUse" x1="323.459" y1="259.827" x2="323.459" y2="135.975" gradientTransform="matrix(1.0001 0 0 -1.0001 .01 652.191)"><stop offset="0" stop-color="#ffc400"/><stop offset="1" stop-color="#ffa400"/></linearGradient><path d="M142.6 544.3c.1.3 0 .6-.7.7C-.5 570.2 57.2 417.9 15.5 313c-21.5 10.1-47.1.9-57.2-20.5-9.9-21-1.3-46.1 19.4-56.7C.1 225 25 234.3 46.5 266.5c41.3 61.7 34.3 243.5 96.1 277.8zm550.2-279.7c.1 22.5-18.1 40.7-40.6 40.8-4.8 0-9.5-.8-14-2.5-38.6 110.8 34.1 282.8-136.9 238.4-183.6-47.7-280.9-9.9-280.9-9.9 14.2-22.2 84.6-45.1 180.2-42.4 102.1 3.7 160.9 49 176.5-50.5.7-3.6 1.3-7.3 1.8-11.1-20.7 32.2-62.3 43.6-79.8 12.7-4.3-7.5-7.6-17.2-9.9-28.2-10.7 22.8-28.9 48.5-56.6 46.9-17.5-1-23.3-13.2-22.6-39.5.4-18.3 1.3-53.2 2-70.9 1.9-49.5-27.3-35.7-31.8-1.1-1.8 13.9-1.6 89.7-.8 112.2-46.4 7.3-54.2-5.7-55.2-37.8-26.2 69.9-70.5 69.7-83 23.1-7.5 31.2-27.6 61.7-47.4 61.7-32 0-63.5-52.6-115.6-185.7 132.6-28.6 262.3-102 266-167.6-25.2 14.4-57.4 5.7-71.8-19.6-14.4-25.2-5.7-57.4 19.6-71.8 5.7-3.3 12-5.4 18.5-6.4 28.2-3.8 55.2 19.2 63.9 57 1.6 7.8 2.4 15.8 2.4 23.8 0 2.5-.1 4.9-.2 7.4-4.6 55.4-52.1 141.9-221.9 209.2 31.1 55.3 52.7 96.4 70.3 89.3 10.1-4.1 10.3-23.6 7.7-97.5 18.5-12.6 38.2-23.4 58.8-32 0 86.7 6.5 117.4 20.7 107.2 11.5-8.1 12.1-33.5 11.8-73.5-.6-32.1-2-50.2-2-50.2 33.5-33 56.3-32.5 56.6 9.2 25.7-87.5 89.8-65 86 14.5-3.9 79.5-1.9 94.8 4.9 94.8 9.3 0 17.1-16.7 16.1-34.1-1.7-44.2 9.5-95.5 35.9-118 37-31.5 67.8-2.2 79.3 15.2.5-1.3 1-2.5 1.5-3.7 25.1-56.5 57.4-55.1 76.4-40 9 7.6 14.1 18.8 14.1 30.6zm-100.1 41.2c-3-9.9-21.4-28.1-39.4-10.4-20.4 20.1-22.7 81.6-14.6 100.7 7.6 18 35.8 15.1 44.1-6.6 2.2-27.4 4-56.6 9.9-83.7z" fill="url(#a)"/><linearGradient id="b" gradientUnits="userSpaceOnUse" x1="323.441" y1="497.087" x2="323.441" y2="297.395" gradientTransform="matrix(1.0001 0 0 -1.0001 .01 652.191)"><stop offset="0" stop-color="#ffd400" stop-opacity="0"/><stop offset="1" stop-color="#ffd400"/></linearGradient><path d="M487.7 378.9c-1.3-41.4 9-92.5 35.2-114.8 10.5-8.9 21.2-13.4 31.8-13.4 18.9 0 35.3 14.6 44.3 28.2l2.3 3.5 3-7.6c17.5-39.3 37-47.6 50.3-47.6 10 0 17.9 4.6 22.8 8.5 16.1 14 17.8 38.3 3.8 54.4-10.5 12-27.3 16.4-42.3 10.9l-2.1-.7-.7 2.1c-5.1 14.7-8.7 31.7-11 51.9-12.4 3.1-25.2 6.1-38.1 8.8 1.6-18.4 3.6-37.9 7.7-56.6l.1-.5-.2-.5c-2.4-7.9-12.8-19.4-25.5-19.4-6.2 0-12.1 2.7-17.5 8-16.5 16.2-20.6 55.3-19.4 79-14.3 2-29.4 4.1-44.5 5.8zm-329.4-15.3l-6.7-11.9 2.3-.9c189.8-75.2 217.5-170.1 220.5-207.3.6-10.2-.1-20.5-2.1-30.6-7.6-33.3-30-55.7-55.7-55.7-1.9 0-3.9.1-5.8.4-27.6 4-46.7 29.7-42.6 57.3 3.6 24.8 24.9 43.1 49.9 43.2 2.4 0 4.7-.2 7.1-.5 6.3-.9 12.5-3 18-6.2l3.4-2-.2 4c-3.9 69.4-140.2 141.5-265.2 169 6 15.3 11.7 29.5 17 42.3 21.8 4.4 44.3 8.2 67 11.3-2.2-4.1-4.5-8.2-6.9-12.4zM44.7 267.7c-14.9-22.3-31.8-34-48.9-34-6 0-11.8 1.4-17.2 4.1-20.1 10.2-28.2 34.7-18 54.8 10 19.8 33.9 28 54 18.5l2.1-1 .8 2.1c4.5 11.5 8 23.4 10.5 35.6 15 4.2 30.5 8.1 46.1 11.7-7-35.7-15.5-71.1-29.4-91.8zm244.7 48.1c-19 8.3-37.3 18.3-54.5 29.9.5 12.9.9 26.2 1.2 37.8 18.6 1.5 37.4 2.5 56 3.2-1.8-17-2.7-40.2-2.7-70.9zm87.5 71.1c.1-15.1.5-33.5 1.3-40 2.4-18.6 12.1-33.1 22.1-33.1 2.8 0 5.4 1.2 7.3 3.3 4.9 5.1 7.2 15.9 6.6 31.2-.3 8-.7 20.5-1.1 37 15.6-.9 31.6-2.1 47.4-3.6 0-14.1.6-34 2-62.1 1.2-25.5-4.7-47-16.2-59.1-5.8-6.1-12.7-9.3-19.8-9.3-18.6 0-35.7 20.4-45.7 54.6 0 0-1.2 2-2.6 1.7-1.4-.3-1.6-2.3-1.6-2.3-.1-13.9-2.8-30.6-15.6-30.6-9 0-21.6 7.7-36.6 22.2.3 4.2 1.4 21.7 1.9 49.3.1 14.3.1 29.2-.8 41.1 4.3 0 8.6.1 13 .1 12.4.2 25.4 0 38.4-.4z" fill="url(#b)"/></svg>