<svg width="820" height="235" viewBox="0 0 820 235" xmlns="http://www.w3.org/2000/svg"><path d="M82.537 118.329c0 3.785-3.082 6.854-6.883 6.854s-6.883-3.069-6.883-6.854 3.082-6.854 6.883-6.854 6.883 3.069 6.883 6.854zm-18.772 0c0 3.785-3.081 6.854-6.882 6.854-3.801 0-6.883-3.069-6.883-6.854s3.082-6.854 6.883-6.854c3.8 0 6.882 3.069 6.882 6.854zm18.772-18.693c0 3.785-3.082 6.854-6.883 6.854s-6.883-3.069-6.883-6.854 3.082-6.854 6.883-6.854 6.883 3.069 6.883 6.854zm-18.772 0c0 3.785-3.081 6.854-6.882 6.854-3.801 0-6.883-3.069-6.883-6.854s3.082-6.854 6.883-6.854c3.8 0 6.882 3.069 6.882 6.854zm18.772-18.693c0 3.786-3.082 6.854-6.883 6.854s-6.883-3.068-6.883-6.854c0-3.785 3.082-6.854 6.883-6.854s6.883 3.069 6.883 6.854zm-18.772 0c0 3.786-3.081 6.854-6.882 6.854-3.801 0-6.883-3.068-6.883-6.854 0-3.785 3.082-6.854 6.883-6.854 3.8 0 6.882 3.069 6.882 6.854zM82.537 62.25c0 3.786-3.082 6.855-6.883 6.855s-6.883-3.07-6.883-6.855c0-3.785 3.082-6.854 6.883-6.854s6.883 3.07 6.883 6.854zm16.268 31.155c0 3.785-3.082 6.854-6.883 6.854s-6.883-3.069-6.883-6.854 3.082-6.854 6.883-6.854 6.883 3.069 6.883 6.854zm15.017-11.215c0 3.785-3.082 6.854-6.883 6.854s-6.883-3.07-6.883-6.854c0-3.786 3.082-6.855 6.883-6.855s6.883 3.07 6.883 6.855zM98.805 68.48c0 3.786-3.082 6.854-6.883 6.854s-6.883-3.068-6.883-6.854c0-3.785 3.082-6.854 6.883-6.854s6.883 3.07 6.883 6.854zm16.268-6.23c0 3.785-3.081 6.854-6.883 6.854-3.8 0-6.882-3.07-6.882-6.855 0-3.785 3.081-6.854 6.882-6.854 3.802 0 6.883 3.07 6.883 6.854zm17.52-1.247c0 3.786-3.082 6.854-6.883 6.854s-6.883-3.068-6.883-6.854c0-3.785 3.082-6.854 6.883-6.854s6.883 3.069 6.883 6.854zm17.52 3.739c0 3.785-3.082 6.854-6.883 6.854s-6.883-3.069-6.883-6.854 3.082-6.854 6.883-6.854c3.8 0 6.883 3.069 6.883 6.854zm0 21.185c0 3.785-3.082 6.854-6.883 6.854s-6.883-3.069-6.883-6.854 3.082-6.854 6.883-6.854c3.8 0 6.883 3.069 6.883 6.854zm15.016-12.462c0 3.785-3.081 6.854-6.882 6.854-3.801 0-6.883-3.069-6.883-6.854s3.082-6.854 6.883-6.854c3.8 0 6.882 3.069 6.882 6.854zm11.263 13.708c0 3.786-3.082 6.854-6.883 6.854-3.8 0-6.882-3.068-6.882-6.854 0-3.785 3.081-6.854 6.882-6.854 3.801 0 6.883 3.069 6.883 6.854zm-15.017 12.462c0 3.785-3.081 6.854-6.883 6.854-3.8 0-6.882-3.069-6.882-6.854s3.081-6.854 6.882-6.854c3.802 0 6.883 3.069 6.883 6.854zm3.754 18.693c0 3.785-3.081 6.854-6.882 6.854-3.801 0-6.883-3.069-6.883-6.854s3.082-6.854 6.883-6.854c3.8 0 6.882 3.069 6.882 6.854zm0 18.693c0 3.785-3.081 6.854-6.882 6.854-3.801 0-6.883-3.069-6.883-6.854s3.082-6.854 6.883-6.854c3.8 0 6.882 3.069 6.882 6.854zm0 18.693c0 3.785-3.081 6.854-6.882 6.854-3.801 0-6.883-3.07-6.883-6.854 0-3.786 3.082-6.854 6.883-6.854 3.8 0 6.882 3.068 6.882 6.854zm0 17.446c0 3.785-3.081 6.854-6.882 6.854-3.801 0-6.883-3.069-6.883-6.854s3.082-6.854 6.883-6.854c3.8 0 6.882 3.069 6.882 6.854zm18.772-51.093c0 3.785-3.082 6.854-6.883 6.854s-6.883-3.07-6.883-6.854c0-3.786 3.082-6.855 6.883-6.855 3.8 0 6.883 3.07 6.883 6.855zm35.039-4.985c0 3.785-3.082 6.854-6.883 6.854-3.8 0-6.883-3.069-6.883-6.854 0-3.786 3.082-6.854 6.883-6.854s6.883 3.068 6.883 6.854zm2.503-18.693c0 3.785-3.082 6.854-6.883 6.854s-6.883-3.069-6.883-6.854 3.082-6.854 6.883-6.854 6.883 3.069 6.883 6.854zm20.022 1.246c0 3.785-3.081 6.854-6.882 6.854-3.802 0-6.883-3.069-6.883-6.854s3.081-6.854 6.883-6.854c3.8 0 6.882 3.069 6.882 6.854zm-10.011-18.693c0 3.786-3.082 6.854-6.883 6.854-3.8 0-6.882-3.068-6.882-6.854 0-3.785 3.081-6.854 6.882-6.854 3.801 0 6.883 3.069 6.883 6.854zm12.514-12.462c0 3.786-3.082 6.854-6.883 6.854-3.8 0-6.882-3.068-6.882-6.854 0-3.785 3.081-6.854 6.882-6.854 3.801 0 6.883 3.07 6.883 6.854zm8.76 16.2c0 3.786-3.082 6.855-6.883 6.855-3.8 0-6.883-3.069-6.883-6.854s3.082-6.854 6.883-6.854 6.883 3.069 6.883 6.854zm8.76-24.923c0 3.785-3.082 6.854-6.883 6.854s-6.883-3.069-6.883-6.854 3.082-6.854 6.883-6.854 6.883 3.069 6.883 6.854zm8.76 16.2c0 3.786-3.082 6.855-6.883 6.855s-6.883-3.07-6.883-6.854c0-3.786 3.082-6.854 6.883-6.854s6.883 3.068 6.883 6.854zm9.999-18.85c0 3.925-3.196 7.108-7.138 7.108-3.942 0-7.138-3.183-7.138-7.108 0-3.926 3.196-7.108 7.138-7.108 3.942 0 7.138 3.182 7.138 7.108zm-58.804 78.668c0 3.785-3.082 6.854-6.883 6.854s-6.883-3.07-6.883-6.854c0-3.786 3.082-6.854 6.883-6.854s6.883 3.068 6.883 6.854zm20.022 0c0 3.785-3.081 6.854-6.882 6.854-3.802 0-6.883-3.07-6.883-6.854 0-3.786 3.081-6.854 6.883-6.854 3.8 0 6.882 3.068 6.882 6.854zm-10.011 17.446c0 3.785-3.082 6.854-6.883 6.854-3.8 0-6.882-3.069-6.882-6.854s3.081-6.854 6.882-6.854c3.801 0 6.883 3.069 6.883 6.854zm21.274-2.492c0 3.785-3.082 6.854-6.883 6.854-3.8 0-6.883-3.069-6.883-6.854s3.082-6.854 6.883-6.854 6.883 3.069 6.883 6.854zm-8.76 16.2c0 3.786-3.082 6.854-6.883 6.854-3.8 0-6.882-3.068-6.882-6.854 0-3.785 3.081-6.854 6.882-6.854 3.801 0 6.883 3.069 6.883 6.854zm17.52 8.724c0 3.785-3.082 6.854-6.883 6.854s-6.883-3.07-6.883-6.854c0-3.786 3.082-6.854 6.883-6.854s6.883 3.068 6.883 6.854zm8.76-17.447c0 3.785-3.082 6.854-6.883 6.854s-6.883-3.069-6.883-6.854 3.082-6.854 6.883-6.854 6.883 3.069 6.883 6.854zm8.76 19.939c0 3.785-3.082 6.854-6.883 6.854s-6.883-3.069-6.883-6.854 3.082-6.854 6.883-6.854c3.8 0 6.883 3.069 6.883 6.854zm10.01-19.939c0 3.785-3.08 6.854-6.882 6.854-3.801 0-6.883-3.069-6.883-6.854s3.082-6.854 6.883-6.854 6.883 3.069 6.883 6.854zm8.76 17.447c0 3.785-3.081 6.854-6.882 6.854-3.801 0-6.883-3.07-6.883-6.854 0-3.786 3.082-6.854 6.883-6.854s6.883 3.068 6.883 6.854zm7.51-24.924c0 3.785-3.083 6.854-6.884 6.854-3.8 0-6.882-3.069-6.882-6.854s3.081-6.854 6.882-6.854c3.801 0 6.883 3.069 6.883 6.854zm10.01 16.2c0 3.786-3.081 6.854-6.882 6.854-3.802 0-6.883-3.068-6.883-6.854 0-3.785 3.081-6.854 6.883-6.854 3.8 0 6.882 3.069 6.882 6.854zm13.766-13.708c0 3.785-3.082 6.854-6.883 6.854s-6.883-3.069-6.883-6.854 3.082-6.854 6.883-6.854 6.883 3.069 6.883 6.854zM317.8 135.776c0 3.785-3.081 6.854-6.883 6.854-3.8 0-6.882-3.07-6.882-6.854 0-3.786 3.081-6.854 6.882-6.854 3.802 0 6.883 3.068 6.883 6.854zm18.771 1.246c0 3.785-3.081 6.854-6.883 6.854-3.8 0-6.882-3.069-6.882-6.854s3.081-6.854 6.882-6.854c3.802 0 6.883 3.069 6.883 6.854zm3.754-19.94c0 3.786-3.081 6.855-6.882 6.855-3.801 0-6.883-3.069-6.883-6.854 0-3.786 3.082-6.854 6.883-6.854 3.8 0 6.882 3.068 6.882 6.854zm27.531 0c0 3.786-3.081 6.855-6.882 6.855-3.801 0-6.883-3.069-6.883-6.854 0-3.786 3.082-6.854 6.883-6.854 3.8 0 6.882 3.068 6.882 6.854zm18.772 0c0 3.786-3.082 6.855-6.883 6.855s-6.883-3.069-6.883-6.854c0-3.786 3.082-6.854 6.883-6.854 3.8 0 6.883 3.068 6.883 6.854zm-16.269 19.94c0 3.785-3.081 6.854-6.883 6.854-3.8 0-6.882-3.069-6.882-6.854s3.081-6.854 6.882-6.854c3.802 0 6.883 3.069 6.883 6.854zm20.023-1.246c0 3.785-3.082 6.854-6.883 6.854s-6.883-3.07-6.883-6.854c0-3.786 3.082-6.854 6.883-6.854s6.883 3.068 6.883 6.854zM370.36 98.39c0 3.785-3.081 6.854-6.883 6.854-3.8 0-6.882-3.069-6.882-6.854s3.081-6.854 6.882-6.854c3.802 0 6.883 3.069 6.883 6.854zm20.023 1.246c0 3.785-3.082 6.854-6.883 6.854s-6.883-3.069-6.883-6.854 3.082-6.854 6.883-6.854 6.883 3.069 6.883 6.854zM380.37 80.943c0 3.786-3.081 6.854-6.882 6.854-3.801 0-6.883-3.068-6.883-6.854 0-3.785 3.082-6.854 6.883-6.854 3.8 0 6.882 3.069 6.882 6.854zm22.526 3.739c0 3.785-3.082 6.854-6.883 6.854s-6.883-3.069-6.883-6.854 3.082-6.854 6.883-6.854 6.883 3.069 6.883 6.854zm-10.011-16.2c0 3.785-3.082 6.853-6.883 6.853s-6.883-3.068-6.883-6.854c0-3.785 3.082-6.854 6.883-6.854 3.8 0 6.883 3.07 6.883 6.854zm17.52-8.724c0 3.785-3.082 6.854-6.883 6.854-3.802 0-6.883-3.069-6.883-6.854s3.081-6.854 6.883-6.854c3.8 0 6.882 3.069 6.882 6.854zm8.76 16.2c0 3.786-3.083 6.855-6.884 6.855-3.8 0-6.882-3.07-6.882-6.854 0-3.786 3.081-6.854 6.882-6.854 3.801 0 6.883 3.068 6.883 6.854zm8.759-18.692c0 3.785-3.082 6.854-6.883 6.854-3.8 0-6.883-3.069-6.883-6.854 0-3.786 3.082-6.854 6.883-6.854s6.883 3.068 6.883 6.854zm10.011 18.693c0 3.785-3.081 6.854-6.883 6.854-3.8 0-6.882-3.07-6.882-6.854 0-3.786 3.081-6.854 6.882-6.854 3.802 0 6.883 3.068 6.883 6.854zm10.011-16.2c0 3.784-3.081 6.853-6.882 6.853-3.801 0-6.883-3.069-6.883-6.854s3.082-6.854 6.883-6.854c3.8 0 6.882 3.069 6.882 6.854zm16.269 8.722c0 3.786-3.082 6.854-6.883 6.854s-6.883-3.068-6.883-6.854c0-3.785 3.082-6.854 6.883-6.854s6.883 3.07 6.883 6.854zm-8.76 16.2c0 3.786-3.082 6.855-6.883 6.855-3.8 0-6.883-3.069-6.883-6.854s3.082-6.854 6.883-6.854 6.883 3.069 6.883 6.854zm22.525-2.491c0 3.785-3.081 6.854-6.883 6.854-3.8 0-6.882-3.07-6.882-6.854 0-3.786 3.081-6.855 6.882-6.855 3.802 0 6.883 3.07 6.883 6.855zm-11.26 17.446c0 3.785-3.082 6.854-6.883 6.854s-6.883-3.069-6.883-6.854 3.082-6.854 6.883-6.854 6.883 3.069 6.883 6.854zm18.77-1.246c0 3.785-3.08 6.854-6.882 6.854-3.801 0-6.883-3.069-6.883-6.854s3.082-6.854 6.883-6.854 6.883 3.069 6.883 6.854zm3.755 18.693c0 3.785-3.082 6.854-6.883 6.854s-6.883-3.069-6.883-6.854c0-3.786 3.082-6.854 6.883-6.854s6.883 3.068 6.883 6.854zM717 173.16c0 3.785-3.082 6.854-6.883 6.854-3.8 0-6.882-3.069-6.882-6.854s3.081-6.854 6.882-6.854c3.801 0 6.883 3.069 6.883 6.854zm-195.22 0c0 3.785-3.081 6.854-6.882 6.854-3.801 0-6.883-3.069-6.883-6.854s3.082-6.854 6.883-6.854c3.8 0 6.882 3.069 6.882 6.854zm18.772 0c0 3.785-3.082 6.854-6.883 6.854s-6.883-3.069-6.883-6.854 3.082-6.854 6.883-6.854 6.883 3.069 6.883 6.854zm-18.772-18.693c0 3.786-3.081 6.854-6.882 6.854-3.801 0-6.883-3.068-6.883-6.854 0-3.785 3.082-6.854 6.883-6.854 3.8 0 6.882 3.07 6.882 6.854zm18.772 0c0 3.786-3.082 6.854-6.883 6.854s-6.883-3.068-6.883-6.854c0-3.785 3.082-6.854 6.883-6.854s6.883 3.07 6.883 6.854zm-18.772-18.692c0 3.785-3.081 6.854-6.882 6.854-3.801 0-6.883-3.07-6.883-6.854 0-3.786 3.082-6.854 6.883-6.854 3.8 0 6.882 3.068 6.882 6.854zm18.772 0c0 3.785-3.082 6.854-6.883 6.854s-6.883-3.07-6.883-6.854c0-3.786 3.082-6.854 6.883-6.854s6.883 3.068 6.883 6.854zm-18.772-18.693c0 3.785-3.081 6.854-6.882 6.854-3.801 0-6.883-3.069-6.883-6.854 0-3.786 3.082-6.854 6.883-6.854 3.8 0 6.882 3.068 6.882 6.854zm18.772 0c0 3.785-3.082 6.854-6.883 6.854s-6.883-3.069-6.883-6.854c0-3.786 3.082-6.854 6.883-6.854s6.883 3.068 6.883 6.854zM521.78 98.39c0 3.785-3.081 6.854-6.882 6.854-3.801 0-6.883-3.069-6.883-6.854s3.082-6.854 6.883-6.854c3.8 0 6.882 3.069 6.882 6.854zm18.772 0c0 3.785-3.082 6.854-6.883 6.854s-6.883-3.069-6.883-6.854 3.082-6.854 6.883-6.854 6.883 3.069 6.883 6.854zM521.78 79.697c0 3.785-3.081 6.854-6.882 6.854-3.801 0-6.883-3.069-6.883-6.854s3.082-6.854 6.883-6.854c3.8 0 6.882 3.069 6.882 6.854zm18.772 0c0 3.785-3.082 6.854-6.883 6.854s-6.883-3.069-6.883-6.854 3.082-6.854 6.883-6.854 6.883 3.069 6.883 6.854zm16.268 7.477c0 3.786-3.082 6.854-6.883 6.854s-6.883-3.068-6.883-6.854c0-3.785 3.082-6.854 6.883-6.854s6.883 3.069 6.883 6.854zm0-22.431c0 3.785-3.082 6.854-6.883 6.854s-6.883-3.069-6.883-6.854 3.082-6.854 6.883-6.854 6.883 3.069 6.883 6.854zm17.52-4.985c0 3.785-3.082 6.854-6.883 6.854s-6.883-3.069-6.883-6.854 3.082-6.854 6.883-6.854 6.883 3.069 6.883 6.854zm17.52 1.246c0 3.786-3.082 6.854-6.883 6.854-3.802 0-6.883-3.068-6.883-6.854 0-3.785 3.081-6.854 6.883-6.854 3.8 0 6.882 3.069 6.882 6.854zm-3.755 18.693c0 3.785-3.082 6.854-6.883 6.854-3.8 0-6.882-3.069-6.882-6.854s3.081-6.854 6.882-6.854c3.801 0 6.883 3.069 6.883 6.854zm21.274-9.97c0 3.786-3.082 6.855-6.883 6.855-3.8 0-6.882-3.07-6.882-6.854 0-3.786 3.081-6.854 6.882-6.854 3.801 0 6.883 3.068 6.883 6.854zm11.263 13.709c0 3.785-3.082 6.854-6.883 6.854s-6.883-3.069-6.883-6.854c0-3.786 3.082-6.854 6.883-6.854s6.883 3.068 6.883 6.854zm13.765-11.216c0 3.785-3.081 6.854-6.883 6.854-3.8 0-6.882-3.069-6.882-6.854s3.081-6.854 6.882-6.854c3.802 0 6.883 3.069 6.883 6.854zm15.017-9.97c0 3.786-3.082 6.855-6.883 6.855-3.8 0-6.882-3.07-6.882-6.855 0-3.785 3.081-6.854 6.882-6.854 3.801 0 6.883 3.07 6.883 6.854zm8.76 17.447c0 3.785-3.082 6.854-6.883 6.854s-6.883-3.069-6.883-6.854 3.082-6.854 6.883-6.854 6.883 3.069 6.883 6.854zm8.76-21.185c0 3.785-3.082 6.854-6.883 6.854s-6.883-3.069-6.883-6.854 3.082-6.854 6.883-6.854 6.883 3.069 6.883 6.854zm8.76 21.185c0 3.785-3.082 6.854-6.883 6.854s-6.883-3.069-6.883-6.854 3.082-6.854 6.883-6.854c3.8 0 6.883 3.069 6.883 6.854zm8.76-16.2c0 3.785-3.082 6.854-6.883 6.854s-6.883-3.07-6.883-6.854c0-3.786 3.082-6.854 6.883-6.854 3.8 0 6.882 3.068 6.882 6.854zm15.016 8.723c0 3.785-3.081 6.854-6.882 6.854-3.802 0-6.883-3.069-6.883-6.854s3.081-6.854 6.883-6.854c3.8 0 6.882 3.069 6.882 6.854zm-8.76 16.2c0 3.786-3.081 6.854-6.882 6.854-3.801 0-6.883-3.068-6.883-6.854 0-3.785 3.082-6.854 6.883-6.854 3.8 0 6.882 3.07 6.882 6.854zm20.023-2.492c0 3.785-3.082 6.854-6.883 6.854-3.8 0-6.883-3.069-6.883-6.854s3.082-6.854 6.883-6.854 6.883 3.069 6.883 6.854zm-12.514 17.447c0 3.785-3.082 6.854-6.883 6.854s-6.883-3.069-6.883-6.854c0-3.786 3.082-6.854 6.883-6.854s6.883 3.068 6.883 6.854zm1 17.446c0 3.786-3.082 6.854-6.883 6.854s-6.883-3.068-6.883-6.854c0-3.785 3.082-6.854 6.883-6.854s6.883 3.07 6.883 6.854zM717 119.575c0 3.785-3.082 6.854-6.883 6.854-3.8 0-6.882-3.069-6.882-6.854s3.081-6.854 6.882-6.854c3.801 0 6.883 3.069 6.883 6.854zm0 18.693c0 3.785-3.082 6.854-6.883 6.854-3.8 0-6.882-3.069-6.882-6.854s3.081-6.854 6.882-6.854c3.801 0 6.883 3.069 6.883 6.854zm0 17.447c0 3.785-3.082 6.854-6.883 6.854-3.8 0-6.882-3.07-6.882-6.854 0-3.786 3.081-6.854 6.882-6.854 3.801 0 6.883 3.068 6.883 6.854zm-17.52-17.447c0 3.785-3.081 6.854-6.882 6.854-3.802 0-6.883-3.069-6.883-6.854s3.081-6.854 6.883-6.854c3.8 0 6.882 3.069 6.882 6.854zm-1.251 17.447c0 3.785-3.082 6.854-6.883 6.854s-6.883-3.07-6.883-6.854c0-3.786 3.082-6.854 6.883-6.854s6.883 3.068 6.883 6.854zm0 17.446c0 3.785-3.082 6.854-6.883 6.854s-6.883-3.069-6.883-6.854 3.082-6.854 6.883-6.854 6.883 3.069 6.883 6.854zM717 102.13c0 3.785-3.082 6.854-6.883 6.854-3.8 0-6.882-3.07-6.882-6.854 0-3.786 3.081-6.855 6.882-6.855 3.801 0 6.883 3.07 6.883 6.855zm-73.833-12.462c0 3.785-3.082 6.854-6.883 6.854-3.8 0-6.882-3.07-6.882-6.854 0-3.786 3.081-6.854 6.882-6.854 3.801 0 6.883 3.068 6.883 6.854zM610.63 104.62c0 3.785-3.081 6.854-6.882 6.854-3.801 0-6.883-3.069-6.883-6.854s3.082-6.854 6.883-6.854c3.8 0 6.882 3.069 6.882 6.854zm17.52-4.985c0 3.785-3.082 6.854-6.883 6.854-3.8 0-6.882-3.069-6.882-6.854s3.081-6.854 6.882-6.854c3.801 0 6.883 3.069 6.883 6.854zm1.252 73.525c0 3.785-3.082 6.854-6.883 6.854s-6.883-3.069-6.883-6.854 3.082-6.854 6.883-6.854c3.8 0 6.883 3.069 6.883 6.854zm0-18.693c0 3.786-3.082 6.854-6.883 6.854s-6.883-3.068-6.883-6.854c0-3.785 3.082-6.854 6.883-6.854 3.8 0 6.883 3.07 6.883 6.854zm0-18.692c0 3.785-3.082 6.854-6.883 6.854s-6.883-3.07-6.883-6.854c0-3.786 3.082-6.854 6.883-6.854 3.8 0 6.883 3.068 6.883 6.854zm0-17.447c0 3.785-3.082 6.854-6.883 6.854s-6.883-3.069-6.883-6.854 3.082-6.854 6.883-6.854c3.8 0 6.883 3.069 6.883 6.854zM610.63 173.16c0 3.785-3.081 6.854-6.882 6.854-3.801 0-6.883-3.069-6.883-6.854s3.082-6.854 6.883-6.854c3.8 0 6.882 3.069 6.882 6.854zm0-16.2c0 3.785-3.081 6.854-6.882 6.854-3.801 0-6.883-3.069-6.883-6.854s3.082-6.854 6.883-6.854c3.8 0 6.882 3.069 6.882 6.854zm0-18.693c0 3.785-3.081 6.854-6.882 6.854-3.801 0-6.883-3.069-6.883-6.854s3.082-6.854 6.883-6.854c3.8 0 6.882 3.069 6.882 6.854zm0-16.2c0 3.785-3.081 6.854-6.882 6.854-3.801 0-6.883-3.07-6.883-6.854 0-3.786 3.082-6.855 6.883-6.855 3.8 0 6.882 3.07 6.882 6.855zm-7.508-33.648c0 3.786-3.082 6.854-6.883 6.854-3.8 0-6.883-3.068-6.883-6.854 0-3.785 3.082-6.854 6.883-6.854s6.883 3.07 6.883 6.854zm-31.285-9.97c0 3.786-3.082 6.855-6.883 6.855s-6.883-3.069-6.883-6.854 3.082-6.854 6.883-6.854 6.883 3.069 6.883 6.854zM521.78 61.005c0 3.786-3.081 6.854-6.882 6.854-3.801 0-6.883-3.068-6.883-6.854 0-3.785 3.082-6.854 6.883-6.854 3.8 0 6.882 3.069 6.882 6.854zm18.772 0c0 3.786-3.082 6.854-6.883 6.854s-6.883-3.068-6.883-6.854c0-3.785 3.082-6.854 6.883-6.854s6.883 3.069 6.883 6.854zm-70.08 56.079c0 3.785-3.08 6.854-6.882 6.854-3.801 0-6.883-3.069-6.883-6.854 0-3.786 3.082-6.854 6.883-6.854s6.883 3.068 6.883 6.854zm15.018 19.939c0 3.785-3.082 6.854-6.883 6.854s-6.883-3.069-6.883-6.854 3.082-6.854 6.883-6.854 6.883 3.069 6.883 6.854zm-18.771-1.246c0 3.785-3.082 6.854-6.883 6.854s-6.883-3.07-6.883-6.854c0-3.786 3.082-6.854 6.883-6.854s6.883 3.068 6.883 6.854zm11.262 17.446c0 3.785-3.081 6.854-6.883 6.854-3.8 0-6.882-3.069-6.882-6.854s3.081-6.854 6.882-6.854c3.802 0 6.883 3.069 6.883 6.854zm-13.765 13.708c0 3.786-3.082 6.854-6.883 6.854s-6.883-3.068-6.883-6.854c0-3.785 3.082-6.854 6.883-6.854s6.883 3.069 6.883 6.854zm-10.011-16.2c0 3.785-3.082 6.854-6.883 6.854s-6.883-3.069-6.883-6.854 3.082-6.854 6.883-6.854c3.8 0 6.883 3.069 6.883 6.854zm-6.258 24.924c0 3.785-3.081 6.854-6.882 6.854-3.801 0-6.883-3.07-6.883-6.854 0-3.786 3.082-6.854 6.883-6.854 3.8 0 6.882 3.068 6.882 6.854zm-10.01-17.447c0 3.785-3.082 6.854-6.884 6.854-3.8 0-6.882-3.069-6.882-6.854s3.081-6.854 6.882-6.854c3.802 0 6.883 3.069 6.883 6.854zm-18.772 0c0 3.785-3.082 6.854-6.883 6.854-3.8 0-6.882-3.069-6.882-6.854s3.081-6.854 6.882-6.854c3.801 0 6.883 3.069 6.883 6.854zm-8.76 17.447c0 3.785-3.081 6.854-6.882 6.854-3.802 0-6.883-3.07-6.883-6.854 0-3.786 3.081-6.854 6.883-6.854 3.8 0 6.882 3.068 6.882 6.854zm-17.52-8.724c0 3.786-3.081 6.854-6.882 6.854-3.801 0-6.883-3.068-6.883-6.854 0-3.785 3.082-6.854 6.883-6.854 3.8 0 6.883 3.069 6.883 6.854zm-12.514-13.708c0 3.785-3.081 6.854-6.882 6.854-3.801 0-6.883-3.069-6.883-6.854s3.082-6.854 6.883-6.854c3.8 0 6.882 3.069 6.882 6.854zm21.274-2.492c0 3.785-3.081 6.854-6.882 6.854-3.801 0-6.883-3.069-6.883-6.854s3.082-6.854 6.883-6.854c3.8 0 6.882 3.069 6.882 6.854zm26.28 27.416c0 3.785-3.082 6.854-6.883 6.854-3.8 0-6.883-3.069-6.883-6.854s3.082-6.854 6.883-6.854 6.883 3.069 6.883 6.854zm-106.37-61.063c0 3.785-3.081 6.854-6.882 6.854-3.802 0-6.883-3.069-6.883-6.854 0-3.786 3.081-6.854 6.883-6.854 3.8 0 6.882 3.068 6.882 6.854zm-3.754-17.447c0 3.785-3.081 6.854-6.883 6.854-3.8 0-6.882-3.069-6.882-6.854s3.081-6.854 6.882-6.854c3.802 0 6.883 3.069 6.883 6.854zm-11.263-14.954c0 3.785-3.081 6.854-6.882 6.854-3.801 0-6.883-3.069-6.883-6.854s3.082-6.854 6.883-6.854c3.8 0 6.882 3.069 6.882 6.854zm8.76-16.2c0 3.785-3.081 6.853-6.882 6.853-3.802 0-6.883-3.068-6.883-6.854 0-3.785 3.081-6.854 6.883-6.854 3.8 0 6.882 3.07 6.882 6.854zm-16.268-8.724c0 3.785-3.082 6.854-6.883 6.854-3.8 0-6.882-3.069-6.882-6.854s3.081-6.854 6.882-6.854c3.801 0 6.883 3.069 6.883 6.854zm-10.011 16.2c0 3.786-3.082 6.855-6.883 6.855s-6.883-3.07-6.883-6.854c0-3.786 3.082-6.854 6.883-6.854s6.883 3.068 6.883 6.854zm40.045 6.232c0 3.785-3.082 6.854-6.883 6.854s-6.883-3.07-6.883-6.854c0-3.786 3.082-6.855 6.883-6.855s6.883 3.07 6.883 6.855zm7.508 16.2c0 3.785-3.081 6.854-6.883 6.854-3.8 0-6.882-3.069-6.882-6.854s3.081-6.854 6.882-6.854c3.802 0 6.883 3.069 6.883 6.854zm-98.86 18.693c0 3.785-3.083 6.854-6.884 6.854-3.8 0-6.882-3.069-6.882-6.854 0-3.786 3.081-6.854 6.882-6.854 3.801 0 6.883 3.068 6.883 6.854zm-53.812 22.43c0 3.785-3.082 6.854-6.883 6.854s-6.883-3.069-6.883-6.854 3.082-6.854 6.883-6.854c3.8 0 6.883 3.069 6.883 6.854zm0 17.447c0 3.785-3.082 6.854-6.883 6.854s-6.883-3.069-6.883-6.854 3.082-6.854 6.883-6.854c3.8 0 6.883 3.069 6.883 6.854zm0 16.2c0 3.785-3.082 6.854-6.883 6.854s-6.883-3.069-6.883-6.854 3.082-6.854 6.883-6.854c3.8 0 6.883 3.069 6.883 6.854zm-1.252-69.786c0 3.785-3.081 6.854-6.883 6.854-3.8 0-6.882-3.069-6.882-6.854 0-3.786 3.081-6.854 6.882-6.854 3.802 0 6.883 3.068 6.883 6.854zM132.593 78.45c0 3.785-3.082 6.854-6.883 6.854s-6.883-3.069-6.883-6.854 3.082-6.854 6.883-6.854 6.883 3.069 6.883 6.854zm-68.828-16.2c0 3.785-3.081 6.854-6.882 6.854-3.801 0-6.883-3.07-6.883-6.855 0-3.785 3.082-6.854 6.883-6.854 3.8 0 6.882 3.07 6.882 6.854zm18.772 74.77c0 3.786-3.082 6.855-6.883 6.855s-6.883-3.069-6.883-6.854 3.082-6.854 6.883-6.854 6.883 3.069 6.883 6.854zm-18.772 0c0 3.786-3.081 6.855-6.882 6.855-3.801 0-6.883-3.069-6.883-6.854s3.082-6.854 6.883-6.854c3.8 0 6.882 3.069 6.882 6.854zm18.772 18.694c0 3.785-3.082 6.854-6.883 6.854s-6.883-3.07-6.883-6.854c0-3.786 3.082-6.854 6.883-6.854s6.883 3.068 6.883 6.854zm-18.772 0c0 3.785-3.081 6.854-6.882 6.854-3.801 0-6.883-3.07-6.883-6.854 0-3.786 3.082-6.854 6.883-6.854 3.8 0 6.882 3.068 6.882 6.854zm18.772 17.446c0 3.785-3.082 6.854-6.883 6.854s-6.883-3.069-6.883-6.854 3.082-6.854 6.883-6.854 6.883 3.069 6.883 6.854zm-18.772 0c0 3.785-3.081 6.854-6.882 6.854-3.801 0-6.883-3.069-6.883-6.854s3.082-6.854 6.883-6.854c3.8 0 6.882 3.069 6.882 6.854zm684.518-16.47h3.959c1.217-.031 2.195-.311 2.944-.84.742-.527 1.114-1.22 1.114-2.08 0-1.168-.332-1.994-.989-2.48-.66-.49-1.833-.731-3.527-.731h-3.501v6.131zm0 3.078v8.132h-3.576v-20.42h7c2.59 0 4.597.525 6.029 1.574 1.427 1.05 2.143 2.578 2.143 4.582 0 1.969-1.084 3.48-3.247 4.519 2.063.8 3.103 2.437 3.118 4.907v1.469c0 1.378.144 2.37.432 2.98v.388h-3.679c-.236-.577-.354-1.61-.354-3.092 0-1.483-.026-2.36-.077-2.634-.27-1.539-1.38-2.343-3.325-2.406h-4.464zm-11.368-1.815c0 2.756.679 5.306 2.033 7.652 1.35 2.35 3.191 4.187 5.516 5.516 2.328 1.329 4.84 1.994 7.549 1.994 2.723 0 5.25-.675 7.586-2.029a14.719 14.719 0 005.494-5.516c1.328-2.322 1.992-4.861 1.992-7.617 0-2.739-.664-5.267-1.992-7.583a14.57 14.57 0 00-5.494-5.477c-2.336-1.34-4.863-2.008-7.586-2.008-2.708 0-5.228.661-7.56 1.984-2.336 1.322-4.173 3.15-5.52 5.49a14.993 14.993 0 00-2.018 7.594zm-2.915.014c0-3.242.79-6.247 2.372-9.02 1.58-2.774 3.771-4.96 6.572-6.555 2.8-1.595 5.822-2.392 9.069-2.392 3.247 0 6.265.797 9.058 2.392 2.79 1.595 4.974 3.781 6.557 6.555 1.582 2.773 2.372 5.778 2.372 9.02 0 3.158-.76 6.113-2.284 8.873-1.52 2.756-3.682 4.973-6.479 6.649-2.804 1.675-5.878 2.511-9.224 2.511-3.332 0-6.398-.829-9.195-2.487-2.8-1.661-4.97-3.868-6.512-6.624-1.539-2.76-2.306-5.732-2.306-8.922z" fill="coral" fill-rule="evenodd"/></svg>