<svg width="312.994970703125px" height="161.39741210937498px" xmlns="http://www.w3.org/2000/svg" viewBox="93.50251464843751 -5.6987060546874915 312.994970703125 161.39741210937498" style="background-image: none; background-position: initial initial; background-repeat: initial initial;" preserveAspectRatio="xMidYMid"><defs><filter id="editing-extrude-glow"><feFlood flood-color="#565654" result="flood-1"></feFlood><feMorphology operator="erode" radius="1" in="SourceAlpha" result="erode"></feMorphology><feComposite operator="in" in="flood-1" in2="erode" result="comp1"></feComposite><feConvolveMatrix order="2,2" divisor="1" in="comp1" result="convolve" kernelMatrix="0 0 1 1"></feConvolveMatrix><feOffset dx="-2" dy="0" in="convolve" result="extrude"></feOffset><feComposite operator="in" in="flood-1" in2="extrude" result="comp-extrude"></feComposite><feFlood flood-color="#a5b5bc" result="flood-2"></feFlood><feComposite operator="in" in="flood-2" in2="SourceAlpha" result="comp2"></feComposite><feMorphology operator="dilate" radius="1" in="comp2" result="dilate"></feMorphology><feOffset dx="-3" dy="0" in="dilate" result="offset"></feOffset><feGaussianBlur in="offset" stdDeviation="5.8" result="blur"></feGaussianBlur><feComponentTransfer in="blur" result="shadow"><feFuncA type="linear" slope="0.8" intercept="-0.2"></feFuncA></feComponentTransfer><feMerge><feMergeNode in="shadow"></feMergeNode><feMergeNode in="comp-extrude"></feMergeNode><feMergeNode in="SourceGraphic"></feMergeNode></feMerge></filter></defs><g filter="url(#editing-extrude-glow)"><g transform="translate(142.51499819755554, 103.63750076293945)"><path d="M2.03 0L17.29-56.70L23.80-56.70L8.47 0L2.03 0ZM27.23-39.34L27.23-56.70L34.02-56.70L31.29-39.34L27.23-39.34ZM38.64-0.07L38.64-56.77L46.13-56.77L46.13-22.96L57.05-40.46L64.89-40.46L55.37-24.64L64.61 0L57.12 0L49.56-20.72L46.13-15.54L46.13-0.07L38.64-0.07ZM69.23 0L69.23-56.70L76.72-56.70L76.72 0L69.23 0ZM95.76 0.56L95.76 0.56Q91.07 0.56 88.48-1.23L88.48-1.23L88.48-1.23Q85.89-3.01 84.84-6.51L84.84-6.51L84.84-6.51Q83.79-10.01 83.79-15.61L83.79-15.61L83.79-24.85L83.79-24.85Q83.79-33.25 86.42-37.14L86.42-37.14L86.42-37.14Q89.04-41.02 95.76-41.02L95.76-41.02L95.76-41.02Q100.66-41.02 103.15-38.99L103.15-38.99L103.15-38.99Q105.63-36.96 106.44-33.29L106.44-33.29L106.44-33.29Q107.24-29.61 107.24-23.38L107.24-23.38L107.24-20.09L91.28-20.09L91.28-11.97L91.28-11.97Q91.28-8.26 92.37-6.62L92.37-6.62L92.37-6.62Q93.45-4.97 95.83-4.97L95.83-4.97L95.83-4.97Q98.21-4.97 99.05-6.62L99.05-6.62L99.05-6.62Q99.89-8.26 99.89-11.62L99.89-11.62L99.89-14.07L107.17-14.07L107.17-12.53L107.17-12.53Q107.17-6.16 104.44-2.80L104.44-2.80L104.44-2.80Q101.71 0.56 95.76 0.56L95.76 0.56ZM91.28-24.15L99.89-24.15L99.89-27.79L99.89-27.79Q99.89-31.92 99.09-33.71L99.09-33.71L99.09-33.71Q98.28-35.49 95.69-35.49L95.69-35.49L95.69-35.49Q93.87-35.49 92.92-34.65L92.92-34.65L92.92-34.65Q91.98-33.81 91.63-31.89L91.63-31.89L91.63-31.89Q91.28-29.96 91.28-26.32L91.28-26.32L91.28-24.15ZM119.28 0L111.30-40.46L118.86-40.46L123.83-7.91L128.87-40.46L136.15-40.46L128.45 0L119.28 0ZM151.69 0.63L151.69 0.63Q146.79 0.63 144.30-1.40L144.30-1.40L144.30-1.40Q141.82-3.43 141.01-7.11L141.01-7.11L141.01-7.11Q140.21-10.78 140.21-17.01L140.21-17.01L140.21-20.30L156.17-20.30L156.17-28.14L156.17-28.14Q156.17-31.71 155.29-33.60L155.29-33.60L155.29-33.60Q154.42-35.49 151.76-35.49L151.76-35.49L151.76-35.49Q149.31-35.49 148.44-33.85L148.44-33.85L148.44-33.85Q147.56-32.20 147.56-28.91L147.56-28.91L147.56-26.46L140.28-26.46L140.28-28.00L140.28-28.00Q140.28-34.30 143.01-37.66L143.01-37.66L143.01-37.66Q145.74-41.02 151.69-41.02L151.69-41.02L151.69-41.02Q156.38-41.02 158.97-39.24L158.97-39.24L158.97-39.24Q161.56-37.45 162.61-33.95L162.61-33.95L162.61-33.95Q163.66-30.45 163.66-24.92L163.66-24.92L163.66-15.54L163.66-15.54Q163.66-7.14 161.03-3.26L161.03-3.26L161.03-3.26Q158.41 0.63 151.69 0.63L151.69 0.63ZM151.76-4.90L151.76-4.90Q153.58-4.90 154.52-5.74L154.52-5.74L154.52-5.74Q155.47-6.58 155.82-8.51L155.82-8.51L155.82-8.51Q156.17-10.43 156.17-14.07L156.17-14.07L156.17-16.24L147.56-16.24L147.56-12.60L147.56-12.60Q147.56-8.47 148.36-6.69L148.36-6.69L148.36-6.69Q149.17-4.90 151.76-4.90L151.76-4.90ZM170.66 0L170.66-40.46L178.15-40.46L178.15-34.72L178.15-34.72Q180.25-38.15 182.45-39.55L182.45-39.55L182.45-39.55Q184.66-40.95 187.11-40.95L187.11-40.95L187.11-40.95Q187.74-40.95 188.30-40.88L188.30-40.88L188.30-32.62L188.30-32.62Q186.06-33.46 184.17-33.46L184.17-33.46L184.17-33.46Q182.35-33.46 180.91-32.59L180.91-32.59L180.91-32.59Q179.48-31.71 178.15-29.54L178.15-29.54L178.15 0L170.66 0ZM191.17 0L206.43-56.70L212.94-56.70L197.61 0L191.17 0Z" fill="#ffffff"></path></g></g><style>text {
  font-size: 64px;
  font-family: Arial Black;
  dominant-baseline: central;
  text-anchor: middle;
}</style></svg>