<?xml version="1.0" encoding="utf-8"?>
<!-- Generator: Adobe Illustrator 24.0.2, SVG Export Plug-In . SVG Version: 6.00 Build 0)  -->
<svg version="1.1" id="Layer_1" xmlns="http://www.w3.org/2000/svg" xmlns:xlink="http://www.w3.org/1999/xlink" x="0px" y="0px"
	 viewBox="0 0 99 23.2" style="enable-background:new 0 0 99 23.2;" xml:space="preserve">
<g>
	<path d="M0.9,13.3c0-5,3.6-8.2,8.3-8.2c2.1,0,4,0.6,5.4,2l-2.3,3.2c-0.9-0.9-1.8-1.3-3-1.3c-2.2,0-4,1.5-4,4.3
		c0,2.9,1.7,4.1,3.8,4.1c1.1,0,2.1-0.3,3.2-1.3l2.2,3.1c-1.5,1.4-3.4,2.2-5.8,2.2C4.3,21.5,0.9,18.5,0.9,13.3z"/>
	<path d="M31.7,5.6v15.5h-4.2l-0.2-2c-1.2,1.7-2.8,2.4-4.9,2.4c-3.1,0-5.4-2.2-5.4-6.6V5.6h4.5v8.6c0,2.4,1,3.3,2.7,3.3
		c1.7,0,3-1,3-3.7V5.6H31.7z"/>
	<path d="M45,5.3v4.5c-2.7-0.3-5.2,0.6-5.2,3.7v7.6h-4.5V5.6h4.2l0.2,2.7C41.1,5.9,43.1,5.3,45,5.3z"/>
	<path d="M56.4,21.1l-0.3-1.9c-1,1.4-2.6,2.2-4.6,2.2c-3.1,0-5.4-1.7-5.4-4.9c0-3,2.6-4.9,6.8-4.9c1.2,0,2.1,0.2,2.9,0.4v-0.4
		c0-1.7-1.2-2.8-3.2-2.8c-1.6,0-2.8,0.5-4.1,1.3L47,6.9c1.7-1.1,3.8-1.7,6-1.7c4.3,0,7,2.4,7,6.4v5.3c0,1.5,0.1,3.1,0.3,4.3H56.4z
		 M55.9,15.3v-0.6c-0.7-0.2-1.5-0.3-2.3-0.3c-2.3,0-3.1,0.8-3.1,2c0,1,0.7,1.7,2.2,1.7C54.4,18.1,55.9,17.1,55.9,15.3z"/>
	<path d="M74.5,20.3c-1.3,0.8-2.7,1.2-4.2,1.2c-3.1,0-5.7-1.4-5.7-5.8V9.4h-3l0.9-3.8h2.1V1.7h4.5v3.9h5v3.8h-5v6.3
		c0,1.3,0.7,1.9,1.9,1.9c0.8,0,1.4-0.2,2.1-0.6L74.5,20.3z"/>
	<path d="M91.3,14.5h-11c0.4,2.1,1.8,3.1,4,3.1c1.4,0,2.7-0.4,4-1.5l2.1,3c-1.7,1.6-3.8,2.4-6.5,2.4c-4.9,0-8.2-3.1-8.2-8.1
		c0-5.4,3.9-8.3,8-8.3c4.4,0,7.6,2.8,7.6,8.6C91.4,14,91.4,14.3,91.3,14.5z M80.4,11.7h6.4c-0.3-1.8-1.3-3-3.1-3
		C82,8.7,80.8,9.8,80.4,11.7z"/>
	<path d="M92.5,18.8c0-1.5,1.2-2.7,2.8-2.7s2.8,1.1,2.8,2.7c0,1.6-1.2,2.7-2.8,2.7S92.5,20.4,92.5,18.8z"/>
</g>
</svg>
