<?xml version="1.0" standalone="no"?>
<!DOCTYPE svg PUBLIC "-//W3C//DTD SVG 20010904//EN"
 "http://www.w3.org/TR/2001/REC-SVG-20010904/DTD/svg10.dtd">
<svg version="1.0" xmlns="http://www.w3.org/2000/svg"
 width="495.000000pt" height="150.000000pt" viewBox="0 0 495.000000 150.000000"
 preserveAspectRatio="xMidYMid meet">

<g transform="translate(0.000000,150.000000) scale(0.100000,-0.100000)"
fill="#000000" stroke="none">
<path d="M1358 1131 c-294 -94 -382 -453 -161 -662 94 -89 222 -127 361 -108
140 19 274 121 323 246 32 81 33 214 1 295 -25 63 -95 147 -153 184 -101 63
-255 82 -371 45z m202 -223 c62 -32 93 -91 88 -171 -11 -159 -200 -215 -286
-85 -58 89 -31 208 58 255 54 29 84 29 140 1z"/>
<path d="M425 1128 c-3 -7 -4 -180 -3 -383 l3 -370 128 -3 127 -3 0 126 0 125
180 0 180 0 0 100 0 100 -180 0 -180 0 0 50 0 50 195 0 196 0 -3 108 -3 107
-318 3 c-249 2 -319 0 -322 -10z"/>
<path d="M1942 868 c3 -270 3 -274 29 -328 33 -69 79 -115 149 -149 51 -24 65
-26 195 -26 139 0 141 0 207 33 77 38 119 83 150 162 20 51 21 74 22 315 l1
260 -127 3 -127 3 -3 -243 c-3 -215 -5 -246 -21 -270 -31 -45 -103 -61 -157
-33 -56 29 -60 50 -60 310 l0 235 -131 0 -130 0 3 -272z"/>
<path d="M2735 1128 c-3 -7 -4 -180 -3 -383 l3 -370 128 -3 127 -3 0 177 0
176 142 -176 142 -176 113 0 113 0 0 385 0 385 -125 0 -125 0 -2 -169 -3 -169
-135 167 -135 166 -118 3 c-88 2 -119 -1 -122 -10z"/>
<path d="M3550 755 l0 -387 208 4 c178 4 216 8 274 26 142 47 226 138 254 276
36 174 -31 332 -171 403 -89 46 -138 54 -357 60 l-208 6 0 -388z m410 133 c59
-30 82 -74 77 -146 -7 -92 -65 -141 -174 -145 l-58 -2 -3 158 -3 157 59 0 c40
0 71 -7 102 -22z"/>
<path d="M4328 604 c-80 -43 -76 -179 6 -218 73 -34 149 -4 175 70 18 52 9 88
-34 131 -27 27 -40 33 -76 33 -24 -1 -56 -7 -71 -16z"/>
</g>
</svg>
