<?xml version="1.0" standalone="no"?>
<!DOCTYPE svg PUBLIC "-//W3C//DTD SVG 20010904//EN"
 "http://www.w3.org/TR/2001/REC-SVG-20010904/DTD/svg10.dtd">
<svg version="1.0" xmlns="http://www.w3.org/2000/svg"
 width="675.000000pt" height="200.000000pt" viewBox="0 0 675.000000 200.000000"
 preserveAspectRatio="xMidYMid meet">

<g transform="translate(0.000000,200.000000) scale(0.100000,-0.100000)"
fill="#000000" stroke="none">
<path d="M402 1697 c-95 -166 -173 -306 -173 -312 0 -5 78 -146 173 -312 l173
-302 118 -1 118 0 -12 23 c-7 12 -86 149 -176 305 -89 156 -163 285 -163 287
0 2 74 131 163 287 90 156 169 293 176 306 l12 22 -118 0 -118 -1 -173 -302z"/>
<path d="M846 1695 c-97 -167 -176 -310 -176 -315 0 -6 25 -54 56 -106 l56
-96 17 29 c10 15 91 155 180 311 l163 282 349 0 c192 0 349 3 349 8 0 4 -24
48 -53 97 l-53 90 -356 3 -356 2 -176 -305z"/>
<path d="M6523 1675 c-82 -35 -85 -191 -4 -225 50 -20 137 -9 168 23 36 36 43
118 14 164 -31 49 -113 67 -178 38z"/>
<path d="M1183 1517 c-29 -52 -53 -97 -53 -100 0 -4 159 -7 354 -7 l353 0 168
-292 c93 -161 173 -298 179 -305 8 -9 25 13 68 87 l57 100 -176 305 -176 305
-361 0 -361 0 -52 -93z"/>
<path d="M3600 1182 c0 -281 -3 -348 -16 -393 -35 -119 -102 -163 -249 -162
-96 0 -141 13 -184 54 -33 31 -62 100 -68 165 l-6 54 -98 0 -99 0 0 -57 c0
-166 93 -313 228 -363 142 -54 343 -50 468 9 73 34 142 100 174 166 49 101 52
130 57 508 l5 357 -106 0 -106 0 0 -338z"/>
<path d="M5713 1339 c-92 -15 -203 -68 -247 -118 -11 -11 -23 -21 -27 -21 -4
0 -9 26 -11 58 l-3 57 -87 3 -88 3 0 -426 0 -425 99 0 100 0 3 258 c3 242 4
259 25 298 52 97 143 146 285 152 119 5 183 -13 238 -68 65 -65 73 -102 78
-387 l4 -253 99 0 99 0 0 233 c0 127 -5 263 -10 301 -19 131 -94 242 -200 296
-86 44 -232 60 -357 39z"/>
<path d="M4000 1053 c0 -283 5 -326 49 -411 31 -61 102 -129 165 -158 176 -80
444 -48 583 70 l40 35 7 -59 7 -60 84 0 85 0 0 425 0 426 -97 -3 -98 -3 -5
-260 -5 -260 -28 -48 c-55 -93 -158 -141 -302 -140 -135 2 -207 39 -252 131
l-28 57 -3 263 -3 262 -100 0 -99 0 0 -267z"/>
<path d="M6487 1313 c-4 -3 -7 -195 -7 -425 l0 -418 105 0 105 0 0 425 0 425
-98 0 c-54 0 -102 -3 -105 -7z"/>
<path d="M1511 1208 c7 -13 86 -150 175 -306 90 -156 164 -285 164 -286 0 -2
-79 -140 -175 -307 l-175 -304 111 -3 c62 -1 117 2 122 7 5 5 87 143 181 308
l172 298 -149 258 c-82 143 -161 280 -176 305 l-27 47 -118 3 -117 3 12 -23z"/>
<path d="M58 1100 l-58 -99 176 -305 176 -306 362 0 361 0 53 93 c28 52 52 96
52 100 0 4 -159 7 -354 7 l-354 0 -167 289 c-91 159 -172 296 -178 305 -10 13
-21 0 -69 -84z"/>
<path d="M1346 510 l-179 -310 -348 0 c-192 0 -349 -3 -349 -7 0 -5 24 -48 53
-98 l53 -90 355 -3 356 -2 177 306 c97 168 176 309 176 314 0 9 -96 180 -108
192 -4 4 -88 -132 -186 -302z"/>
</g>
</svg>
