<svg xmlns="http://www.w3.org/2000/svg" viewBox="0 0 109 40" width="109" height="40" preserveAspectRatio="xMidYMid meet" style="width: 100%; height: 100%; transform: translate3d(0px, 0px, 0px);"><defs><clipPath id="__lottie_element_2"><rect width="109" height="40" x="0" y="0"></rect></clipPath><clipPath id="__lottie_element_4"><path d="M0,0 L987,0 L987,290 L0,290z"></path></clipPath><clipPath id="__lottie_element_8"><path d="M0,0 L500,0 L500,500 L0,500z"></path></clipPath><clipPath id="__lottie_element_13"><path d="M0,0 L987,0 L987,290 L0,290z"></path></clipPath><clipPath id="__lottie_element_14"><path fill="#ffffff" clip-rule="nonzero" d=" M919,39 C919,39 47.77000045776367,38 47.77000045776367,38 C47.77000045776367,38 47.77000045776367,248.85899353027344 47.77000045776367,248.85899353027344 C47.77000045776367,248.85899353027344 919,249.85899353027344 919,249.85899353027344 C919,249.85899353027344 919,39 919,39" fill-opacity="1"></path></clipPath><filter id="__lottie_element_17" filterUnits="objectBoundingBox" x="0%" y="0%" width="100%" height="100%"><feComponentTransfer in="SourceGraphic"><feFuncA type="table" tableValues="1.0 0.0"></feFuncA></feComponentTransfer></filter><mask id="__lottie_element_16" mask-type="alpha"><g filter="url(#__lottie_element_17)"><rect width="987" height="290" x="0" y="0" fill="#ffffff" opacity="0"></rect><g transform="matrix(0.625431478023529,0,0,0.625431478023529,249.7794647216797,145.19091796875)" opacity="1" style="display: block;"><g opacity="1" transform="matrix(1,0,0,1,0,0)"><path fill="rgb(21,21,21)" fill-opacity="1" d=" M99.39900207519531,-172.16400146484375 C99.39900207519531,-172.16400146484375 -99.39900207519531,-172.16400146484375 -99.39900207519531,-172.16400146484375 C-99.39900207519531,-172.16400146484375 -198.79800415039062,0 -198.79800415039062,0 C-198.79800415039062,0 -99.39900207519531,172.16400146484375 -99.39900207519531,172.16400146484375 C-99.39900207519531,172.16400146484375 99.39900207519531,172.16400146484375 99.39900207519531,172.16400146484375 C99.39900207519531,172.16400146484375 198.79800415039062,0 198.79800415039062,0 C198.79800415039062,0 99.39900207519531,-172.16400146484375 99.39900207519531,-172.16400146484375z"></path></g></g></g></mask></defs><g clip-path="url(#__lottie_element_2)"><g clip-path="url(#__lottie_element_4)" transform="matrix(0.14327000081539154,0,0,0.14327000081539154,-16.95374298095703,-0.7741508483886719)" opacity="1" style="display: block;"><g clip-path="url(#__lottie_element_8)" transform="matrix(0.628000020980835,0,0,0.628000020980835,92.5,-12)" opacity="1" style="display: block;"><g transform="matrix(1,0,0,1,153.406005859375,285.3900146484375)" opacity="1" style="display: block;"><g opacity="1" transform="matrix(1,0,0,1,0,0)"><path fill="rgb(0,0,0)" fill-opacity="1" d=" M102.43099975585938,35.393001556396484 C102.43099975585938,35.393001556396484 -20.89699935913086,35.393001556396484 -20.89699935913086,35.393001556396484 C-20.89699935913086,35.393001556396484 -82.06400299072266,-70.62000274658203 -82.06400299072266,-70.62000274658203 C-82.06400299072266,-70.62000274658203 -102.43099975585938,-35.393001556396484 -102.43099975585938,-35.393001556396484 C-102.43099975585938,-35.393001556396484 -41.263999938964844,70.62000274658203 -41.263999938964844,70.62000274658203 C-41.263999938964844,70.62000274658203 82.13099670410156,70.62000274658203 82.13099670410156,70.62000274658203 C82.13099670410156,70.62000274658203 102.43099975585938,35.393001556396484 102.43099975585938,35.393001556396484z"></path></g></g><g transform="matrix(1,0,0,1,346.593994140625,214.60299682617188)" opacity="1" style="display: block;"><g opacity="1" transform="matrix(1,0,0,1,0,0)"><path fill="rgb(0,0,0)" fill-opacity="1" d=" M-102.43099975585938,-35.393001556396484 C-102.43099975585938,-35.393001556396484 20.898000717163086,-35.393001556396484 20.898000717163086,-35.393001556396484 C20.898000717163086,-35.393001556396484 82.06400299072266,70.62000274658203 82.06400299072266,70.62000274658203 C82.06400299072266,70.62000274658203 102.43099975585938,35.393001556396484 102.43099975585938,35.393001556396484 C102.43099975585938,35.393001556396484 41.26300048828125,-70.62000274658203 41.26300048828125,-70.62000274658203 C41.26300048828125,-70.62000274658203 -82.13099670410156,-70.62000274658203 -82.13099670410156,-70.62000274658203 C-82.13099670410156,-70.62000274658203 -102.43099975585938,-35.393001556396484 -102.43099975585938,-35.393001556396484z"></path></g></g><g transform="matrix(1,0,0,1,140.47000122070312,184.05599975585938)" opacity="1" style="display: block;"><g opacity="1" transform="matrix(1,0,0,1,0,0)"><path fill="rgb(0,0,0)" fill-opacity="1" d=" M51.150001525878906,106.41100311279297 C51.150001525878906,106.41100311279297 -10.482000350952148,-0.39800000190734863 -10.482000350952148,-0.39800000190734863 C-10.482000350952148,-0.39800000190734863 50.683998107910156,-106.41100311279297 50.683998107910156,-106.41100311279297 C50.683998107910156,-106.41100311279297 10.017000198364258,-106.41100311279297 10.017000198364258,-106.41100311279297 C10.017000198364258,-106.41100311279297 -51.150001525878906,-0.39800000190734863 -51.150001525878906,-0.39800000190734863 C-51.150001525878906,-0.39800000190734863 10.482000350952148,106.41100311279297 10.482000350952148,106.41100311279297 C10.482000350952148,106.41100311279297 51.150001525878906,106.41100311279297 51.150001525878906,106.41100311279297z"></path></g></g><g transform="matrix(1,0,0,1,359.52899169921875,315.9429931640625)" opacity="1" style="display: block;"><g opacity="1" transform="matrix(1,0,0,1,0,0)"><path fill="rgb(0,0,0)" fill-opacity="1" d=" M-51.14899826049805,-106.41100311279297 C-51.14899826049805,-106.41100311279297 10.482000350952148,0.39800000190734863 10.482000350952148,0.39800000190734863 C10.482000350952148,0.39800000190734863 -50.685001373291016,106.41100311279297 -50.685001373291016,106.41100311279297 C-50.685001373291016,106.41100311279297 -10.017999649047852,106.41100311279297 -10.017999649047852,106.41100311279297 C-10.017999649047852,106.41100311279297 51.14899826049805,0.39800000190734863 51.14899826049805,0.39800000190734863 C51.14899826049805,0.39800000190734863 -10.482000350952148,-106.41100311279297 -10.482000350952148,-106.41100311279297 C-10.482000350952148,-106.41100311279297 -51.14899826049805,-106.41100311279297 -51.14899826049805,-106.41100311279297z"></path></g></g><g transform="matrix(1,0,0,1,267.64599609375,148.66299438476562)" opacity="1" style="display: block;"><g opacity="1" transform="matrix(1,0,0,1,0,0)"><path fill="rgb(0,0,0)" fill-opacity="1" d=" M-81.86599731445312,71.01799774169922 C-81.86599731445312,71.01799774169922 -20.167999267578125,-35.79100036621094 -20.167999267578125,-35.79100036621094 C-20.167999267578125,-35.79100036621094 102.23200225830078,-35.79100036621094 102.23200225830078,-35.79100036621094 C102.23200225830078,-35.79100036621094 81.86499786376953,-71.01799774169922 81.86499786376953,-71.01799774169922 C81.86499786376953,-71.01799774169922 -40.53499984741211,-71.01799774169922 -40.53499984741211,-71.01799774169922 C-40.53499984741211,-71.01799774169922 -102.23200225830078,35.79100036621094 -102.23200225830078,35.79100036621094 C-102.23200225830078,35.79100036621094 -81.86599731445312,71.01799774169922 -81.86599731445312,71.01799774169922z"></path></g></g><g transform="matrix(1,0,0,1,232.3520050048828,351.3370056152344)" opacity="1" style="display: block;"><g opacity="1" transform="matrix(1,0,0,1,0,0)"><path fill="rgb(0,0,0)" fill-opacity="1" d=" M81.86499786376953,-71.01799774169922 C81.86499786376953,-71.01799774169922 20.16699981689453,35.79100036621094 20.16699981689453,35.79100036621094 C20.16699981689453,35.79100036621094 -102.23200225830078,35.79100036621094 -102.23200225830078,35.79100036621094 C-102.23200225830078,35.79100036621094 -81.86499786376953,71.01799774169922 -81.86499786376953,71.01799774169922 C-81.86499786376953,71.01799774169922 40.534000396728516,71.01799774169922 40.534000396728516,71.01799774169922 C40.534000396728516,71.01799774169922 102.23200225830078,-35.79100036621094 102.23200225830078,-35.79100036621094 C102.23200225830078,-35.79100036621094 81.86499786376953,-71.01799774169922 81.86499786376953,-71.01799774169922z"></path></g></g></g><g mask="url(#__lottie_element_16)" style="display: block;"><g clip-path="url(#__lottie_element_13)" transform="matrix(0.9999821782112122,0,0,0.9999821782112122,-0.06417420506477356,0.0025814580731093884)" opacity="1"><g clip-path="url(#__lottie_element_14)"><g transform="matrix(6.78000020980835,0,0,6.78000020980835,486.4320068359375,147.11199951171875)" opacity="1" style="display: block;"><g opacity="1" transform="matrix(1,0,0,1,0,0)"><path fill="rgb(0,0,0)" fill-opacity="1" d=" M4.176000118255615,0.7310000061988831 C4.176000118255615,4.283999919891357 2.944999933242798,5.730999946594238 -0.08100000023841858,5.730999946594238 C-2.7820000648498535,5.730999946594238 -4.00600004196167,4.5320000648498535 -4.176000118255615,1.7300000190734863 C-4.176000118255615,1.7300000190734863 -4.176000118255615,1.343000054359436 -4.176000118255615,1.343000054359436 C-4.176000118255615,1.343000054359436 -7.456999778747559,1.343000054359436 -7.456999778747559,1.343000054359436 C-7.456999778747559,1.343000054359436 -7.456999778747559,1.784000039100647 -7.456999778747559,1.784000039100647 C-7.2870001792907715,6.396999835968018 -4.880000114440918,8.642000198364258 -0.10499999672174454,8.642000198364258 C4.910999774932861,8.642000198364258 7.456999778747559,5.994999885559082 7.456999778747559,0.777999997138977 C7.456999778747559,0.777999997138977 7.456999778747559,-8.642000198364258 7.456999778747559,-8.642000198364258 C7.456999778747559,-8.642000198364258 4.176000118255615,-8.642000198364258 4.176000118255615,-8.642000198364258 C4.176000118255615,-8.642000198364258 4.176000118255615,0.7310000061988831 4.176000118255615,0.7310000061988831 C4.176000118255615,0.7310000061988831 4.176000118255615,0.7310000061988831 4.176000118255615,0.7310000061988831z"></path></g></g><g transform="matrix(6.78000020980835,0,0,6.78000020980835,839.2329711914062,83.98500061035156)" opacity="1" style="display: block;"><g opacity="1" transform="matrix(1,0,0,1,0,0)"><path fill="rgb(0,0,0)" fill-opacity="1" d=" M0.012000000104308128,2.000999927520752 C1.3819999694824219,2.000999927520752 2.069999933242798,1.3270000219345093 2.069999933242798,-0.012000000104308128 C2.069999933242798,-1.3899999856948853 1.4279999732971191,-2.000999927520752 -0.012000000104308128,-2.000999927520752 C-1.4359999895095825,-2.000999927520752 -2.069999933242798,-1.3899999856948853 -2.069999933242798,-0.012000000104308128 C-2.069999933242798,1.4199999570846558 -1.4670000076293945,2.000999927520752 0.012000000104308128,2.000999927520752z"></path></g></g><g transform="matrix(6.78000020980835,0,0,6.78000020980835,838.8389892578125,156.55999755859375)" opacity="1" style="display: block;"><g opacity="1" transform="matrix(1,0,0,1,0,0)"><path fill="rgb(0,0,0)" fill-opacity="1" d=" M1.6410000324249268,-6.783999919891357 C1.6410000324249268,-6.783999919891357 -1.6410000324249268,-6.783999919891357 -1.6410000324249268,-6.783999919891357 C-1.6410000324249268,-6.783999919891357 -1.6410000324249268,6.783999919891357 -1.6410000324249268,6.783999919891357 C-1.6410000324249268,6.783999919891357 1.6410000324249268,6.783999919891357 1.6410000324249268,6.783999919891357 C1.6410000324249268,6.783999919891357 1.6410000324249268,-6.783999919891357 1.6410000324249268,-6.783999919891357z"></path></g></g><g transform="matrix(6.78000020980835,0,0,6.78000020980835,749.4450073242188,154.85499572753906)" opacity="1" style="display: block;"><g opacity="1" transform="matrix(1,0,0,1,0,0)"><path fill="rgb(0,0,0)" fill-opacity="1" d=" M5.050000190734863,-6.191999912261963 C3.996999979019165,-6.764999866485596 2.7360000610351562,-7.043000221252441 1.187999963760376,-7.043000221252441 C1.156999945640564,-7.043000221252441 1.1260000467300415,-7.043000221252441 1.0950000286102295,-7.043000221252441 C1.0950000286102295,-7.043000221252441 1.0410000085830688,-7.043000221252441 1.0410000085830688,-7.043000221252441 C0.01899999938905239,-7.043000221252441 -3.4240000247955322,-6.85699987411499 -5.250999927520752,-4.458000183105469 C-5.250999927520752,-4.458000183105469 -5.406000137329102,-6.5329999923706055 -5.406000137329102,-6.5329999923706055 C-5.406000137329102,-6.5329999923706055 -8.23900032043457,-6.5329999923706055 -8.23900032043457,-6.5329999923706055 C-8.23900032043457,-6.5329999923706055 -8.23900032043457,7.035999774932861 -8.23900032043457,7.035999774932861 C-8.23900032043457,7.035999774932861 -4.995999813079834,7.035999774932861 -4.995999813079834,7.035999774932861 C-4.995999813079834,7.035999774932861 -4.995999813079834,-0.08500000089406967 -4.995999813079834,-0.08500000089406967 C-4.995999813079834,-1.5709999799728394 -4.083000183105469,-3.5299999713897705 -1.5130000114440918,-4.171999931335449 C-1.4739999771118164,-4.179999828338623 -1.4279999732971191,-4.195000171661377 -1.3890000581741333,-4.203000068664551 C-1.350000023841858,-4.210999965667725 -1.312000036239624,-4.2179999351501465 -1.2730000019073486,-4.22599983215332 C-1.2029999494552612,-4.242000102996826 -1.1339999437332153,-4.256999969482422 -1.0640000104904175,-4.264999866485596 C-1.0640000104904175,-4.264999866485596 -0.9950000047683716,-4.28000020980835 -0.9950000047683716,-4.28000020980835 C-0.9100000262260437,-4.296000003814697 -0.8320000171661377,-4.302999973297119 -0.746999979019165,-4.318999767303467 C-0.746999979019165,-4.318999767303467 -0.6930000185966492,-4.327000141143799 -0.6930000185966492,-4.327000141143799 C-0.6079999804496765,-4.335000038146973 -0.5149999856948853,-4.3420000076293945 -0.4300000071525574,-4.349999904632568 C-0.4300000071525574,-4.349999904632568 -0.36800000071525574,-4.357999801635742 -0.36800000071525574,-4.357999801635742 C-0.28299999237060547,-4.366000175476074 -0.1889999955892563,-4.373000144958496 -0.10400000214576721,-4.373000144958496 C-0.10400000214576721,-4.373000144958496 -0.0729999989271164,-4.373000144958496 -0.0729999989271164,-4.373000144958496 C-0.05700000002980232,-4.373000144958496 -0.050999999046325684,-4.373000144958496 -0.03500000014901161,-4.373000144958496 C0.08100000023841858,-4.38100004196167 0.1979999989271164,-4.38100004196167 0.3059999942779541,-4.38100004196167 C2.5269999504089355,-4.38100004196167 3.9119999408721924,-3.6449999809265137 4.554999828338623,-2.128000020980835 C4.872000217437744,-1.4470000267028809 5.0269999504089355,-0.6119999885559082 5.0269999504089355,0.43299999833106995 C5.0269999504089355,0.43299999833106995 5.0269999504089355,7.043000221252441 5.0269999504089355,7.043000221252441 C5.0269999504089355,7.043000221252441 8.23900032043457,7.043000221252441 8.23900032043457,7.043000221252441 C8.23900032043457,7.043000221252441 8.23900032043457,-0.19300000369548798 8.23900032043457,-0.19300000369548798 C8.23900032043457,-2.940999984741211 7.10099983215332,-5.061999797821045 5.050000190734863,-6.191999912261963z"></path></g></g><g transform="matrix(6.78000020980835,0,0,6.78000020980835,613.4509887695312,158.29100036621094)" opacity="1" style="display: block;"><g opacity="1" transform="matrix(1,0,0,1,0,0)"><path fill="rgb(0,0,0)" fill-opacity="1" d=" M5,0.08100000023841858 C5,1.5670000314712524 4.086999893188477,3.5260000228881836 1.5169999599456787,4.168000221252441 C1.4780000448226929,4.176000118255615 1.4320000410079956,4.190999984741211 1.3930000066757202,4.198999881744385 C1.3539999723434448,4.206999778747559 1.315999984741211,4.214000225067139 1.2769999504089355,4.2220001220703125 C1.2070000171661377,4.23799991607666 1.1380000114440918,4.252999782562256 1.0679999589920044,4.261000156402588 C1.0679999589920044,4.261000156402588 0.9990000128746033,4.276000022888184 0.9990000128746033,4.276000022888184 C0.9139999747276306,4.291999816894531 0.8360000252723694,4.298999786376953 0.7509999871253967,4.315000057220459 C0.7509999871253967,4.315000057220459 0.6970000267028809,4.322999954223633 0.6970000267028809,4.322999954223633 C0.6119999885559082,4.330999851226807 0.5189999938011169,4.3379998207092285 0.4339999854564667,4.3460001945495605 C0.4339999854564667,4.3460001945495605 0.3720000088214874,4.354000091552734 0.3720000088214874,4.354000091552734 C0.28700000047683716,4.361999988555908 0.19300000369548798,4.36899995803833 0.1080000028014183,4.36899995803833 C0.1080000028014183,4.36899995803833 0.07699999958276749,4.36899995803833 0.07699999958276749,4.36899995803833 C0.061000000685453415,4.36899995803833 0.054999999701976776,4.36899995803833 0.039000000804662704,4.36899995803833 C-0.07699999958276749,4.376999855041504 -0.1940000057220459,4.376999855041504 -0.3019999861717224,4.376999855041504 C-2.5230000019073486,4.376999855041504 -3.9079999923706055,3.6419999599456787 -4.551000118255615,2.125 C-4.868000030517578,1.444000005722046 -5.0229997634887695,0.6079999804496765 -5.0229997634887695,-0.43700000643730164 C-5.0229997634887695,-0.43700000643730164 -5.0229997634887695,-7.039000034332275 -5.0229997634887695,-7.039000034332275 C-5.0229997634887695,-7.039000034332275 -8.234999656677246,-7.039000034332275 -8.234999656677246,-7.039000034332275 C-8.234999656677246,-7.039000034332275 -8.234999656677246,0.19699999690055847 -8.234999656677246,0.19699999690055847 C-8.234999656677246,2.937000036239624 -7.105000019073486,5.065999984741211 -5.046000003814697,6.188000202178955 C-3.993000030517578,6.761000156402588 -2.7320001125335693,7.039000034332275 -1.184000015258789,7.039000034332275 C-1.152999997138977,7.039000034332275 -1.121999979019165,7.039000034332275 -1.090999960899353,7.039000034332275 C-1.090999960899353,7.039000034332275 -1.0449999570846558,7.039000034332275 -1.0449999570846558,7.039000034332275 C-0.023000000044703484,7.039000034332275 3.4210000038146973,6.853000164031982 5.248000144958496,4.453999996185303 C5.248000144958496,4.453999996185303 5.4019999504089355,6.5289998054504395 5.4019999504089355,6.5289998054504395 C5.4019999504089355,6.5289998054504395 8.234999656677246,6.5289998054504395 8.234999656677246,6.5289998054504395 C8.234999656677246,6.5289998054504395 8.234999656677246,-7.039000034332275 8.234999656677246,-7.039000034332275 C8.234999656677246,-7.039000034332275 5,-7.039000034332275 5,-7.039000034332275 C5,-7.039000034332275 5,0.08100000023841858 5,0.08100000023841858z"></path></g></g></g></g></g></g></g></svg>