<?xml version="1.0" encoding="utf-8"?>
<!-- Generator: Adobe Illustrator 19.2.1, SVG Export Plug-In . SVG Version: 6.00 Build 0)  -->
<svg version="1.1" id="layer" xmlns="http://www.w3.org/2000/svg" xmlns:xlink="http://www.w3.org/1999/xlink" x="0px" y="0px"
	 viewBox="0 0 652 652" style="enable-background:new 0 0 652 652;" xml:space="preserve">
<style type="text/css">
	.st0{fill:#EB8D00;}
	.st1{fill:url(#Base_1_);}
	.st2{fill:url(#HappyShine_1_);}
</style>
<path id="Extrude" class="st0" d="M132.8,543.7c1.6,1.5,8-0.6,9.7,0.6c1.5,1.1,0,7.1-0.7,7.2C-0.5,576.7,59.8,423.6,14.2,320.1
	c-5.3,2.4-11.2,3.6-17,3.5c-23.8,0-43-19.2-43-47c0-2.1,0-3.2,0-3.2c0.2-1.5,0.9-1.7,1.3-3.1c3-12.1,11.1-22.3,22.2-27.9
	C0.1,231.5,25,240.8,46.5,273C85.5,331.2,81.5,496.6,132.8,543.7L132.8,543.7z M692.2,263.9c0.1,0.4,0.6-0.4,0.6,1.7
	c0,23.9-12.8,46.3-40.8,46.3c-4.5,0-8.9-0.8-13.1-2.5c-41.8,112.9,33.4,282.8-137.6,238.4c-183.6-47.7-280.9-9.9-280.9-9.9
	s-2.1-4.5,0-6.5c2.1-1.9,9.6-3.2,12.4-5.1c27.1-17.9,88.9-33.1,167.8-30.9c102.1,3.7,160.9,49,176.5-50.5c0.7-3.6,1.3-7.3,1.8-11.1
	c-20.7,32.2-62.3,43.6-79.8,12.7c-4.3-7.5-7.6-17.2-9.9-28.2c-10.7,22.8-28.9,48.4-56.6,46.9c-17.5-1-23.3-13.2-22.6-39.5
	c0.4-18.3,1.3-53.2,2-70.9c1.9-49.5-27.3-35.7-31.8-1.1c-1.8,13.9-3.2,88.5,0,112.2c-46.4,7.3-55.9-6.7-56.5-35.8
	c-26.2,69.9-70,67.6-82.5,21.1c-7.5,31.2-27.6,61.7-47.4,61.7c-32,0-63.5-50.1-115.6-183.2c-0.6-3-0.6-6,0-9
	c0.1-0.5,2.9,5.9,3.4,5.7c131.4-29.1,258.9-101.2,262.6-166.2c-5.8,3.3-12.2,5.5-18.8,6.5c-28.8,4-55.5-16.6-59.5-45.4
	c-0.7-4.8-0.8-9.7-0.5-14.6c0.1-1.1,0.6-0.7,0.6-0.7c3.5-22.9,21.5-40.7,44.4-44.1c28.2-3.8,55.2,19.2,63.9,57
	c1.2,5.7,2.1,11.5,2.4,17.3c0,68-52.4,155.8-222.1,223.1c31.1,55.3,52.7,96.4,70.3,89.3c10.1-4.1,12.7-23.4,10.1-97.3l52.3-29.8
	c-5.1,85.5,10.5,115,24.8,104.8c11.5-8.1,18.1-33.5,17.9-73.5c-0.6-32.1-3-49.7-3-49.7c33.5-33,49.7-30.1,49.9,11.5
	c25.7-87.5,89.1-67.8,85.2,11.7c-3.9,79.5,0.4,94.8,7.2,94.8c9.3,0,22-16.7,21.1-34.1c-1.7-44.2,4.5-95.5,31-118
	c37-31.5,67.8-2.2,79.3,15.2c0.5-1.3,1-2.5,1.5-3.7c25.1-56.5,57.4-55.1,76.4-40C685.8,246.5,690.5,254.8,692.2,263.9L692.2,263.9z
	 M592.7,314.3c-3-9.9-21.4-30.1-39.4-12.4c-20.4,20.1-22.7,81.6-14.6,100.7c7.6,18,35.8,15.1,44.1-6.6
	C585,368.6,586.8,341.4,592.7,314.3L592.7,314.3z"/>
<linearGradient id="Base_1_" gradientUnits="userSpaceOnUse" x1="323.459" y1="259.8273" x2="323.459" y2="135.9751" gradientTransform="matrix(1.0001 0 0 -1.0001 1.045096e-002 652.1913)">
	<stop  offset="0" style="stop-color:#FFC400"/>
	<stop  offset="1" style="stop-color:#FFA400"/>
</linearGradient>
<path id="Base" class="st1" d="M142.6,544.3c0.1,0.3,0,0.6-0.7,0.7C-0.5,570.2,57.2,417.9,15.5,313c-21.5,10.1-47.1,0.9-57.2-20.5
	c-9.9-21-1.3-46.1,19.4-56.7C0.1,225,25,234.3,46.5,266.5C87.8,328.2,80.8,510,142.6,544.3L142.6,544.3z M692.8,264.6
	c0.1,22.5-18.1,40.7-40.6,40.8c-4.8,0-9.5-0.8-14-2.5c-38.6,110.8,34.1,282.8-136.9,238.4c-183.6-47.7-280.9-9.9-280.9-9.9
	c14.2-22.2,84.6-45.1,180.2-42.4c102.1,3.7,160.9,49,176.5-50.5c0.7-3.6,1.3-7.3,1.8-11.1c-20.7,32.2-62.3,43.6-79.8,12.7
	c-4.3-7.5-7.6-17.2-9.9-28.2c-10.7,22.8-28.9,48.5-56.6,46.9c-17.5-1-23.3-13.2-22.6-39.5c0.4-18.3,1.3-53.2,2-70.9
	c1.9-49.5-27.3-35.7-31.8-1.1c-1.8,13.9-1.6,89.7-0.8,112.2c-46.4,7.3-54.2-5.7-55.2-37.8c-26.2,69.9-70.5,69.7-83,23.1
	c-7.5,31.2-27.6,61.7-47.4,61.7c-32,0-63.5-52.6-115.6-185.7c132.6-28.6,262.3-102,266-167.6c-25.2,14.4-57.4,5.7-71.8-19.6
	c-14.4-25.2-5.7-57.4,19.6-71.8c5.7-3.3,12-5.4,18.5-6.4c28.2-3.8,55.2,19.2,63.9,57c1.6,7.8,2.4,15.8,2.4,23.8
	c0,2.5-0.1,4.9-0.2,7.4c-4.6,55.4-52.1,141.9-221.9,209.2c31.1,55.3,52.7,96.4,70.3,89.3c10.1-4.1,10.3-23.6,7.7-97.5
	c18.5-12.6,38.2-23.4,58.8-32c0,86.7,6.5,117.4,20.7,107.2c11.5-8.1,12.1-33.5,11.8-73.5c-0.6-32.1-2-50.2-2-50.2
	c33.5-33,56.3-32.5,56.6,9.2c25.7-87.5,89.8-65,86,14.5c-3.9,79.5-1.9,94.8,4.9,94.8c9.3,0,17.1-16.7,16.1-34.1h0
	c-1.7-44.2,9.5-95.5,35.9-118c37-31.5,67.8-2.2,79.3,15.2c0.5-1.3,1-2.5,1.5-3.7c25.1-56.5,57.4-55.1,76.4-40
	C687.7,241.6,692.8,252.8,692.8,264.6L692.8,264.6z M592.7,305.8c-3-9.9-21.4-28.1-39.4-10.4c-20.4,20.1-22.7,81.6-14.6,100.7
	c7.6,18,35.8,15.1,44.1-6.6C585,362.1,586.8,332.9,592.7,305.8L592.7,305.8z"/>
<linearGradient id="HappyShine_1_" gradientUnits="userSpaceOnUse" x1="323.4411" y1="497.0865" x2="323.4411" y2="297.3946" gradientTransform="matrix(1.0001 0 0 -1.0001 1.045096e-002 652.1913)">
	<stop  offset="0" style="stop-color:#FFD400;stop-opacity:0"/>
	<stop  offset="1" style="stop-color:#FFD400"/>
</linearGradient>
<path id="HappyShine" class="st2" d="M487.7,378.9c-1.3-41.4,9-92.5,35.2-114.8c10.5-8.9,21.2-13.4,31.8-13.4
	c18.9,0,35.3,14.6,44.3,28.2l2.3,3.5l3-7.6c17.5-39.3,37-47.6,50.3-47.6c10,0,17.9,4.6,22.8,8.5c16.1,14,17.8,38.3,3.8,54.4
	c-10.5,12-27.3,16.4-42.3,10.9l-2.1-0.7l-0.7,2.1c-5.1,14.7-8.7,31.7-11,51.9c-12.4,3.1-25.2,6.1-38.1,8.8
	c1.6-18.4,3.6-37.9,7.7-56.6l0.1-0.5l-0.2-0.5c-2.4-7.9-12.8-19.4-25.5-19.4c-6.2,0-12.1,2.7-17.5,8c-16.5,16.2-20.6,55.3-19.4,79
	C517.9,375.1,502.8,377.2,487.7,378.9L487.7,378.9z M158.3,363.6l-6.7-11.9l2.3-0.9c189.8-75.2,217.5-170.1,220.5-207.3
	c0.6-10.2-0.1-20.5-2.1-30.6c-7.6-33.3-30-55.7-55.7-55.7c-1.9,0-3.9,0.1-5.8,0.4c-27.6,4-46.7,29.7-42.6,57.3
	c3.6,24.8,24.9,43.1,49.9,43.2c2.4,0,4.7-0.2,7.1-0.5c6.3-0.9,12.5-3,18-6.2l3.4-2l-0.2,4c-3.9,69.4-140.2,141.5-265.2,169
	c6,15.3,11.7,29.5,17,42.3c21.8,4.4,44.3,8.2,67,11.3C163,371.9,160.7,367.8,158.3,363.6L158.3,363.6z M44.7,267.7
	c-14.9-22.3-31.8-34-48.9-34c-6,0-11.8,1.4-17.2,4.1c-20.1,10.2-28.2,34.7-18,54.8c10,19.8,33.9,28,54,18.5l2.1-1l0.8,2.1
	c4.5,11.5,8,23.4,10.5,35.6c15,4.2,30.5,8.1,46.1,11.7C67.1,323.8,58.6,288.4,44.7,267.7L44.7,267.7z M289.4,315.8
	c-19,8.3-37.3,18.3-54.5,29.9c0.5,12.9,0.9,26.2,1.2,37.8c18.6,1.5,37.4,2.5,56,3.2C290.3,369.7,289.4,346.5,289.4,315.8
	L289.4,315.8z M376.9,386.9c0.1-15.1,0.5-33.5,1.3-40c2.4-18.6,12.1-33.1,22.1-33.1c2.8,0,5.4,1.2,7.3,3.3
	c4.9,5.1,7.2,15.9,6.6,31.2c-0.3,8-0.7,20.5-1.1,37c15.6-0.9,31.6-2.1,47.4-3.6c0-14.1,0.6-34,2-62.1c1.2-25.5-4.7-47-16.2-59.1
	c-5.8-6.1-12.7-9.3-19.8-9.3c-18.6,0-35.7,20.4-45.7,54.6c0,0-1.2,2-2.6,1.7c-1.4-0.3-1.6-2.3-1.6-2.3c-0.1-13.9-2.8-30.6-15.6-30.6
	c-9,0-21.6,7.7-36.6,22.2c0.3,4.2,1.4,21.7,1.9,49.3c0.1,14.3,0.1,29.2-0.8,41.1c4.3,0,8.6,0.1,13,0.1
	C350.9,387.5,363.9,387.3,376.9,386.9L376.9,386.9z"/>
</svg>
