<?xml version="1.0" encoding="UTF-8"?>
<svg width="820px" height="235px" viewBox="0 0 820 235" version="1.1" xmlns="http://www.w3.org/2000/svg" xmlns:xlink="http://www.w3.org/1999/xlink">
    <!-- Generator: Sketch 50.2 (55047) - http://www.bohemiancoding.com/sketch -->
    <title>noom logo-H</title>
    <desc>Created with Sketch.</desc>
    <defs></defs>
    <g id="noom-logo-H" stroke="none" stroke-width="1" fill="none" fill-rule="evenodd">
        <g id="Group-2" transform="translate(50.000000, 50.000000)" fill="#FF7F50">
            <g id="Group">
                <path d="M32.5365854,68.3289486 C32.5365854,72.1142135 29.4549645,75.1829819 25.6538462,75.1829819 C21.8527279,75.1829819 18.7711069,72.1142135 18.7711069,68.3289486 C18.7711069,64.5436836 21.8527279,61.4749153 25.6538462,61.4749153 C29.4549645,61.4749153 32.5365854,64.5436836 32.5365854,68.3289486 Z M13.7654784,68.3289486 C13.7654784,72.1142135 10.6838575,75.1829819 6.88273921,75.1829819 C3.08162091,75.1829819 0,72.1142135 0,68.3289486 C0,64.5436836 3.08162091,61.4749153 6.88273921,61.4749153 C10.6838575,61.4749153 13.7654784,64.5436836 13.7654784,68.3289486 Z M32.5365854,49.6361304 C32.5365854,53.4213954 29.4549645,56.4901638 25.6538462,56.4901638 C21.8527279,56.4901638 18.7711069,53.4213954 18.7711069,49.6361304 C18.7711069,45.8508655 21.8527279,42.7820971 25.6538462,42.7820971 C29.4549645,42.7820971 32.5365854,45.8508655 32.5365854,49.6361304 Z M13.7654784,49.6361304 C13.7654784,53.4213954 10.6838575,56.4901638 6.88273921,56.4901638 C3.08162091,56.4901638 0,53.4213954 0,49.6361304 C0,45.8508655 3.08162091,42.7820971 6.88273921,42.7820971 C10.6838575,42.7820971 13.7654784,45.8508655 13.7654784,49.6361304 Z M32.5365854,30.9433123 C32.5365854,34.7285772 29.4549645,37.7973456 25.6538462,37.7973456 C21.8527279,37.7973456 18.7711069,34.7285772 18.7711069,30.9433123 C18.7711069,27.1580473 21.8527279,24.089279 25.6538462,24.089279 C29.4549645,24.089279 32.5365854,27.1580473 32.5365854,30.9433123 Z M13.7654784,30.9433123 C13.7654784,34.7285772 10.6838575,37.7973456 6.88273921,37.7973456 C3.08162091,37.7973456 0,34.7285772 0,30.9433123 C0,27.1580473 3.08162091,24.089279 6.88273921,24.089279 C10.6838575,24.089279 13.7654784,27.1580473 13.7654784,30.9433123 Z M32.5365854,12.2504941 C32.5365854,16.0357591 29.4549645,19.1045275 25.6538462,19.1045275 C21.8527279,19.1045275 18.7711069,16.0357591 18.7711069,12.2504941 C18.7711069,8.4652292 21.8527279,5.39646083 25.6538462,5.39646083 C29.4549645,5.39646083 32.5365854,8.4652292 32.5365854,12.2504941 Z M48.804878,43.4051911 C48.804878,47.190456 45.7232571,50.2592244 41.9221388,50.2592244 C38.1210205,50.2592244 35.0393996,47.190456 35.0393996,43.4051911 C35.0393996,39.6199261 38.1210205,36.5511577 41.9221388,36.5511577 C45.7232571,36.5511577 48.804878,39.6199261 48.804878,43.4051911 Z M63.8217636,32.1895002 C63.8217636,35.9747651 60.7401427,39.0435335 56.9390244,39.0435335 C53.1379061,39.0435335 50.0562852,35.9747651 50.0562852,32.1895002 C50.0562852,28.4042352 53.1379061,25.3354669 56.9390244,25.3354669 C60.7401427,25.3354669 63.8217636,28.4042352 63.8217636,32.1895002 Z M48.804878,18.4814335 C48.804878,22.2666985 45.7232571,25.3354669 41.9221388,25.3354669 C38.1210205,25.3354669 35.0393996,22.2666985 35.0393996,18.4814335 C35.0393996,14.6961686 38.1210205,11.6274002 41.9221388,11.6274002 C45.7232571,11.6274002 48.804878,14.6961686 48.804878,18.4814335 Z M65.0731707,12.2504941 C65.0731707,16.0357591 61.9915498,19.1045275 58.1904315,19.1045275 C54.3893132,19.1045275 51.3076923,16.0357591 51.3076923,12.2504941 C51.3076923,8.4652292 54.3893132,5.39646083 58.1904315,5.39646083 C61.9915498,5.39646083 65.0731707,8.4652292 65.0731707,12.2504941 Z M82.5928705,11.0043063 C82.5928705,14.7895712 79.5112496,17.8583396 75.7101313,17.8583396 C71.909013,17.8583396 68.8273921,14.7895712 68.8273921,11.0043063 C68.8273921,7.21904132 71.909013,4.15027295 75.7101313,4.15027295 C79.5112496,4.15027295 82.5928705,7.21904132 82.5928705,11.0043063 Z M100.11257,14.7428699 C100.11257,18.5281349 97.0309494,21.5969032 93.2298311,21.5969032 C89.4287128,21.5969032 86.3470919,18.5281349 86.3470919,14.7428699 C86.3470919,10.957605 89.4287128,7.88883658 93.2298311,7.88883658 C97.0309494,7.88883658 100.11257,10.957605 100.11257,14.7428699 Z M100.11257,35.9280638 C100.11257,39.7133288 97.0309494,42.7820971 93.2298311,42.7820971 C89.4287128,42.7820971 86.3470919,39.7133288 86.3470919,35.9280638 C86.3470919,32.1427989 89.4287128,29.0740305 93.2298311,29.0740305 C97.0309494,29.0740305 100.11257,32.1427989 100.11257,35.9280638 Z M115.129456,23.466185 C115.129456,27.25145 112.047835,30.3202184 108.246717,30.3202184 C104.445598,30.3202184 101.363977,27.25145 101.363977,23.466185 C101.363977,19.6809201 104.445598,16.6121517 108.246717,16.6121517 C112.047835,16.6121517 115.129456,19.6809201 115.129456,23.466185 Z M126.39212,37.1742517 C126.39212,40.9595166 123.310499,44.028285 119.509381,44.028285 C115.708263,44.028285 112.626642,40.9595166 112.626642,37.1742517 C112.626642,33.3889867 115.708263,30.3202184 119.509381,30.3202184 C123.310499,30.3202184 126.39212,33.3889867 126.39212,37.1742517 Z M111.375235,49.6361304 C111.375235,53.4213954 108.293614,56.4901638 104.492495,56.4901638 C100.691377,56.4901638 97.6097561,53.4213954 97.6097561,49.6361304 C97.6097561,45.8508655 100.691377,42.7820971 104.492495,42.7820971 C108.293614,42.7820971 111.375235,45.8508655 111.375235,49.6361304 Z M115.129456,68.3289486 C115.129456,72.1142135 112.047835,75.1829819 108.246717,75.1829819 C104.445598,75.1829819 101.363977,72.1142135 101.363977,68.3289486 C101.363977,64.5436836 104.445598,61.4749153 108.246717,61.4749153 C112.047835,61.4749153 115.129456,64.5436836 115.129456,68.3289486 Z M115.129456,87.0217667 C115.129456,90.8070317 112.047835,93.8758001 108.246717,93.8758001 C104.445598,93.8758001 101.363977,90.8070317 101.363977,87.0217667 C101.363977,83.2365018 104.445598,80.1677334 108.246717,80.1677334 C112.047835,80.1677334 115.129456,83.2365018 115.129456,87.0217667 Z M115.129456,105.714585 C115.129456,109.49985 112.047835,112.568618 108.246717,112.568618 C104.445598,112.568618 101.363977,109.49985 101.363977,105.714585 C101.363977,101.92932 104.445598,98.8605516 108.246717,98.8605516 C112.047835,98.8605516 115.129456,101.92932 115.129456,105.714585 Z M115.129456,123.161215 C115.129456,126.94648 112.047835,130.015248 108.246717,130.015248 C104.445598,130.015248 101.363977,126.94648 101.363977,123.161215 C101.363977,119.37595 104.445598,116.307182 108.246717,116.307182 C112.047835,116.307182 115.129456,119.37595 115.129456,123.161215 Z M133.900563,72.0675122 C133.900563,75.8527772 130.818942,78.9215455 127.017824,78.9215455 C123.216705,78.9215455 120.135084,75.8527772 120.135084,72.0675122 C120.135084,68.2822473 123.216705,65.2134789 127.017824,65.2134789 C130.818942,65.2134789 133.900563,68.2822473 133.900563,72.0675122 Z M168.939962,67.0827607 C168.939962,70.8680257 165.858342,73.936794 162.057223,73.936794 C158.256105,73.936794 155.174484,70.8680257 155.174484,67.0827607 C155.174484,63.2974958 158.256105,60.2287274 162.057223,60.2287274 C165.858342,60.2287274 168.939962,63.2974958 168.939962,67.0827607 Z M171.442777,48.3899426 C171.442777,52.1752075 168.361156,55.2439759 164.560038,55.2439759 C160.758919,55.2439759 157.677298,52.1752075 157.677298,48.3899426 C157.677298,44.6046776 160.758919,41.5359092 164.560038,41.5359092 C168.361156,41.5359092 171.442777,44.6046776 171.442777,48.3899426 Z M191.465291,49.6361304 C191.465291,53.4213954 188.38367,56.4901638 184.582552,56.4901638 C180.781433,56.4901638 177.699812,53.4213954 177.699812,49.6361304 C177.699812,45.8508655 180.781433,42.7820971 184.582552,42.7820971 C188.38367,42.7820971 191.465291,45.8508655 191.465291,49.6361304 Z M181.454034,30.9433123 C181.454034,34.7285772 178.372413,37.7973456 174.571295,37.7973456 C170.770176,37.7973456 167.688555,34.7285772 167.688555,30.9433123 C167.688555,27.1580473 170.770176,24.089279 174.571295,24.089279 C178.372413,24.089279 181.454034,27.1580473 181.454034,30.9433123 Z M193.968105,18.4814335 C193.968105,22.2666985 190.886484,25.3354669 187.085366,25.3354669 C183.284248,25.3354669 180.202627,22.2666985 180.202627,18.4814335 C180.202627,14.6961686 183.284248,11.6274002 187.085366,11.6274002 C190.886484,11.6274002 193.968105,14.6961686 193.968105,18.4814335 Z M202.727955,34.6818759 C202.727955,38.4671409 199.646334,41.5359092 195.845216,41.5359092 C192.044097,41.5359092 188.962477,38.4671409 188.962477,34.6818759 C188.962477,30.896611 192.044097,27.8278426 195.845216,27.8278426 C199.646334,27.8278426 202.727955,30.896611 202.727955,34.6818759 Z M211.487805,9.75811839 C211.487805,13.5433833 208.406184,16.6121517 204.605066,16.6121517 C200.803947,16.6121517 197.722326,13.5433833 197.722326,9.75811839 C197.722326,5.97285344 200.803947,2.90408507 204.605066,2.90408507 C208.406184,2.90408507 211.487805,5.97285344 211.487805,9.75811839 Z M220.247655,25.9585608 C220.247655,29.7438257 217.166034,32.8125941 213.364916,32.8125941 C209.563797,32.8125941 206.482176,29.7438257 206.482176,25.9585608 C206.482176,22.1732958 209.563797,19.1045275 213.364916,19.1045275 C217.166034,19.1045275 220.247655,22.1732958 220.247655,25.9585608 Z M230.246554,7.1079441 C230.246554,11.0334359 227.050773,14.2158882 223.108841,14.2158882 C219.166908,14.2158882 215.971127,11.0334359 215.971127,7.1079441 C215.971127,3.18245229 219.166908,0 223.108841,0 C227.050773,0 230.246554,3.18245229 230.246554,7.1079441 Z M171.442777,85.7755789 C171.442777,89.5608438 168.361156,92.6296122 164.560038,92.6296122 C160.758919,92.6296122 157.677298,89.5608438 157.677298,85.7755789 C157.677298,81.9903139 160.758919,78.9215455 164.560038,78.9215455 C168.361156,78.9215455 171.442777,81.9903139 171.442777,85.7755789 Z M191.465291,85.7755789 C191.465291,89.5608438 188.38367,92.6296122 184.582552,92.6296122 C180.781433,92.6296122 177.699812,89.5608438 177.699812,85.7755789 C177.699812,81.9903139 180.781433,78.9215455 184.582552,78.9215455 C188.38367,78.9215455 191.465291,81.9903139 191.465291,85.7755789 Z M181.454034,103.222209 C181.454034,107.007474 178.372413,110.076242 174.571295,110.076242 C170.770176,110.076242 167.688555,107.007474 167.688555,103.222209 C167.688555,99.4369442 170.770176,96.3681758 174.571295,96.3681758 C178.372413,96.3681758 181.454034,99.4369442 181.454034,103.222209 Z M202.727955,100.729833 C202.727955,104.515098 199.646334,107.583867 195.845216,107.583867 C192.044097,107.583867 188.962477,104.515098 188.962477,100.729833 C188.962477,96.9445684 192.044097,93.8758001 195.845216,93.8758001 C199.646334,93.8758001 202.727955,96.9445684 202.727955,100.729833 Z M193.968105,116.930276 C193.968105,120.715541 190.886484,123.784309 187.085366,123.784309 C183.284248,123.784309 180.202627,120.715541 180.202627,116.930276 C180.202627,113.145011 183.284248,110.076242 187.085366,110.076242 C190.886484,110.076242 193.968105,113.145011 193.968105,116.930276 Z M211.487805,125.653591 C211.487805,129.438856 208.406184,132.507624 204.605066,132.507624 C200.803947,132.507624 197.722326,129.438856 197.722326,125.653591 C197.722326,121.868326 200.803947,118.799558 204.605066,118.799558 C208.406184,118.799558 211.487805,121.868326 211.487805,125.653591 Z M220.247655,108.206961 C220.247655,111.992226 217.166034,115.060994 213.364916,115.060994 C209.563797,115.060994 206.482176,111.992226 206.482176,108.206961 C206.482176,104.421696 209.563797,101.352927 213.364916,101.352927 C217.166034,101.352927 220.247655,104.421696 220.247655,108.206961 Z M229.007505,128.145967 C229.007505,131.931232 225.925884,135 222.124765,135 C218.323647,135 215.242026,131.931232 215.242026,128.145967 C215.242026,124.360702 218.323647,121.291933 222.124765,121.291933 C225.925884,121.291933 229.007505,124.360702 229.007505,128.145967 Z M239.018762,108.206961 C239.018762,111.992226 235.937141,115.060994 232.136023,115.060994 C228.334904,115.060994 225.253283,111.992226 225.253283,108.206961 C225.253283,104.421696 228.334904,101.352927 232.136023,101.352927 C235.937141,101.352927 239.018762,104.421696 239.018762,108.206961 Z M247.778612,125.653591 C247.778612,129.438856 244.696991,132.507624 240.895872,132.507624 C237.094754,132.507624 234.013133,129.438856 234.013133,125.653591 C234.013133,121.868326 237.094754,118.799558 240.895872,118.799558 C244.696991,118.799558 247.778612,121.868326 247.778612,125.653591 Z M255.287054,100.729833 C255.287054,104.515098 252.205433,107.583867 248.404315,107.583867 C244.603197,107.583867 241.521576,104.515098 241.521576,100.729833 C241.521576,96.9445684 244.603197,93.8758001 248.404315,93.8758001 C252.205433,93.8758001 255.287054,96.9445684 255.287054,100.729833 Z M265.298311,116.930276 C265.298311,120.715541 262.216691,123.784309 258.415572,123.784309 C254.614454,123.784309 251.532833,120.715541 251.532833,116.930276 C251.532833,113.145011 254.614454,110.076242 258.415572,110.076242 C262.216691,110.076242 265.298311,113.145011 265.298311,116.930276 Z M279.06379,103.222209 C279.06379,107.007474 275.982169,110.076242 272.181051,110.076242 C268.379932,110.076242 265.298311,107.007474 265.298311,103.222209 C265.298311,99.4369442 268.379932,96.3681758 272.181051,96.3681758 C275.982169,96.3681758 279.06379,99.4369442 279.06379,103.222209 Z M267.801126,85.7755789 C267.801126,89.5608438 264.719505,92.6296122 260.918386,92.6296122 C257.117268,92.6296122 254.035647,89.5608438 254.035647,85.7755789 C254.035647,81.9903139 257.117268,78.9215455 260.918386,78.9215455 C264.719505,78.9215455 267.801126,81.9903139 267.801126,85.7755789 Z M286.572233,87.0217667 C286.572233,90.8070317 283.490612,93.8758001 279.689493,93.8758001 C275.888375,93.8758001 272.806754,90.8070317 272.806754,87.0217667 C272.806754,83.2365018 275.888375,80.1677334 279.689493,80.1677334 C283.490612,80.1677334 286.572233,83.2365018 286.572233,87.0217667 Z M290.326454,67.0827607 C290.326454,70.8680257 287.244833,73.936794 283.443715,73.936794 C279.642597,73.936794 276.560976,70.8680257 276.560976,67.0827607 C276.560976,63.2974958 279.642597,60.2287274 283.443715,60.2287274 C287.244833,60.2287274 290.326454,63.2974958 290.326454,67.0827607 Z M317.857411,67.0827607 C317.857411,70.8680257 314.77579,73.936794 310.974672,73.936794 C307.173553,73.936794 304.091932,70.8680257 304.091932,67.0827607 C304.091932,63.2974958 307.173553,60.2287274 310.974672,60.2287274 C314.77579,60.2287274 317.857411,63.2974958 317.857411,67.0827607 Z M336.628518,67.0827607 C336.628518,70.8680257 333.546897,73.936794 329.745779,73.936794 C325.94466,73.936794 322.863039,70.8680257 322.863039,67.0827607 C322.863039,63.2974958 325.94466,60.2287274 329.745779,60.2287274 C333.546897,60.2287274 336.628518,63.2974958 336.628518,67.0827607 Z M320.360225,87.0217667 C320.360225,90.8070317 317.278604,93.8758001 313.477486,93.8758001 C309.676368,93.8758001 306.594747,90.8070317 306.594747,87.0217667 C306.594747,83.2365018 309.676368,80.1677334 313.477486,80.1677334 C317.278604,80.1677334 320.360225,83.2365018 320.360225,87.0217667 Z M340.382739,85.7755789 C340.382739,89.5608438 337.301118,92.6296122 333.5,92.6296122 C329.698882,92.6296122 326.617261,89.5608438 326.617261,85.7755789 C326.617261,81.9903139 329.698882,78.9215455 333.5,78.9215455 C337.301118,78.9215455 340.382739,81.9903139 340.382739,85.7755789 Z M320.360225,48.3899426 C320.360225,52.1752075 317.278604,55.2439759 313.477486,55.2439759 C309.676368,55.2439759 306.594747,52.1752075 306.594747,48.3899426 C306.594747,44.6046776 309.676368,41.5359092 313.477486,41.5359092 C317.278604,41.5359092 320.360225,44.6046776 320.360225,48.3899426 Z M340.382739,49.6361304 C340.382739,53.4213954 337.301118,56.4901638 333.5,56.4901638 C329.698882,56.4901638 326.617261,53.4213954 326.617261,49.6361304 C326.617261,45.8508655 329.698882,42.7820971 333.5,42.7820971 C337.301118,42.7820971 340.382739,45.8508655 340.382739,49.6361304 Z M330.371482,30.9433123 C330.371482,34.7285772 327.289861,37.7973456 323.488743,37.7973456 C319.687625,37.7973456 316.606004,34.7285772 316.606004,30.9433123 C316.606004,27.1580473 319.687625,24.089279 323.488743,24.089279 C327.289861,24.089279 330.371482,27.1580473 330.371482,30.9433123 Z M352.896811,34.6818759 C352.896811,38.4671409 349.81519,41.5359092 346.014071,41.5359092 C342.212953,41.5359092 339.131332,38.4671409 339.131332,34.6818759 C339.131332,30.896611 342.212953,27.8278426 346.014071,27.8278426 C349.81519,27.8278426 352.896811,30.896611 352.896811,34.6818759 Z M342.885553,18.4814335 C342.885553,22.2666985 339.803933,25.3354669 336.002814,25.3354669 C332.201696,25.3354669 329.120075,22.2666985 329.120075,18.4814335 C329.120075,14.6961686 332.201696,11.6274002 336.002814,11.6274002 C339.803933,11.6274002 342.885553,14.6961686 342.885553,18.4814335 Z M360.405253,9.75811839 C360.405253,13.5433833 357.323632,16.6121517 353.522514,16.6121517 C349.721396,16.6121517 346.639775,13.5433833 346.639775,9.75811839 C346.639775,5.97285344 349.721396,2.90408507 353.522514,2.90408507 C357.323632,2.90408507 360.405253,5.97285344 360.405253,9.75811839 Z M369.165103,25.9585608 C369.165103,29.7438257 366.083482,32.8125941 362.282364,32.8125941 C358.481246,32.8125941 355.399625,29.7438257 355.399625,25.9585608 C355.399625,22.1732958 358.481246,19.1045275 362.282364,19.1045275 C366.083482,19.1045275 369.165103,22.1732958 369.165103,25.9585608 Z M377.924953,7.26574264 C377.924953,11.0510076 374.843332,14.119776 371.042214,14.119776 C367.241096,14.119776 364.159475,11.0510076 364.159475,7.26574264 C364.159475,3.48047769 367.241096,0.41170932 371.042214,0.41170932 C374.843332,0.41170932 377.924953,3.48047769 377.924953,7.26574264 Z M387.93621,25.9585608 C387.93621,29.7438257 384.854589,32.8125941 381.053471,32.8125941 C377.252353,32.8125941 374.170732,29.7438257 374.170732,25.9585608 C374.170732,22.1732958 377.252353,19.1045275 381.053471,19.1045275 C384.854589,19.1045275 387.93621,22.1732958 387.93621,25.9585608 Z M397.947467,9.75811839 C397.947467,13.5433833 394.865846,16.6121517 391.064728,16.6121517 C387.26361,16.6121517 384.181989,13.5433833 384.181989,9.75811839 C384.181989,5.97285344 387.26361,2.90408507 391.064728,2.90408507 C394.865846,2.90408507 397.947467,5.97285344 397.947467,9.75811839 Z M414.21576,18.4814335 C414.21576,22.2666985 411.134139,25.3354669 407.333021,25.3354669 C403.531902,25.3354669 400.450281,22.2666985 400.450281,18.4814335 C400.450281,14.6961686 403.531902,11.6274002 407.333021,11.6274002 C411.134139,11.6274002 414.21576,14.6961686 414.21576,18.4814335 Z M405.45591,34.6818759 C405.45591,38.4671409 402.374289,41.5359092 398.573171,41.5359092 C394.772052,41.5359092 391.690432,38.4671409 391.690432,34.6818759 C391.690432,30.896611 394.772052,27.8278426 398.573171,27.8278426 C402.374289,27.8278426 405.45591,30.896611 405.45591,34.6818759 Z M427.981238,32.1895002 C427.981238,35.9747651 424.899617,39.0435335 421.098499,39.0435335 C417.297381,39.0435335 414.21576,35.9747651 414.21576,32.1895002 C414.21576,28.4042352 417.297381,25.3354669 421.098499,25.3354669 C424.899617,25.3354669 427.981238,28.4042352 427.981238,32.1895002 Z M416.718574,49.6361304 C416.718574,53.4213954 413.636953,56.4901638 409.835835,56.4901638 C406.034717,56.4901638 402.953096,53.4213954 402.953096,49.6361304 C402.953096,45.8508655 406.034717,42.7820971 409.835835,42.7820971 C413.636953,42.7820971 416.718574,45.8508655 416.718574,49.6361304 Z M435.489681,48.3899426 C435.489681,52.1752075 432.40806,55.2439759 428.606942,55.2439759 C424.805824,55.2439759 421.724203,52.1752075 421.724203,48.3899426 C421.724203,44.6046776 424.805824,41.5359092 428.606942,41.5359092 C432.40806,41.5359092 435.489681,44.6046776 435.489681,48.3899426 Z M439.243902,67.0827607 C439.243902,70.8680257 436.162282,73.936794 432.361163,73.936794 C428.560045,73.936794 425.478424,70.8680257 425.478424,67.0827607 C425.478424,63.2974958 428.560045,60.2287274 432.361163,60.2287274 C436.162282,60.2287274 439.243902,63.2974958 439.243902,67.0827607 Z M667,123.161215 C667,126.94648 663.918379,130.015248 660.117261,130.015248 C656.316142,130.015248 653.234522,126.94648 653.234522,123.161215 C653.234522,119.37595 656.316142,116.307182 660.117261,116.307182 C663.918379,116.307182 667,119.37595 667,123.161215 Z M471.780488,123.161215 C471.780488,126.94648 468.698867,130.015248 464.897749,130.015248 C461.09663,130.015248 458.015009,126.94648 458.015009,123.161215 C458.015009,119.37595 461.09663,116.307182 464.897749,116.307182 C468.698867,116.307182 471.780488,119.37595 471.780488,123.161215 Z M490.551595,123.161215 C490.551595,126.94648 487.469974,130.015248 483.668856,130.015248 C479.867737,130.015248 476.786116,126.94648 476.786116,123.161215 C476.786116,119.37595 479.867737,116.307182 483.668856,116.307182 C487.469974,116.307182 490.551595,119.37595 490.551595,123.161215 Z M471.780488,104.468397 C471.780488,108.253662 468.698867,111.32243 464.897749,111.32243 C461.09663,111.32243 458.015009,108.253662 458.015009,104.468397 C458.015009,100.683132 461.09663,97.6143637 464.897749,97.6143637 C468.698867,97.6143637 471.780488,100.683132 471.780488,104.468397 Z M490.551595,104.468397 C490.551595,108.253662 487.469974,111.32243 483.668856,111.32243 C479.867737,111.32243 476.786116,108.253662 476.786116,104.468397 C476.786116,100.683132 479.867737,97.6143637 483.668856,97.6143637 C487.469974,97.6143637 490.551595,100.683132 490.551595,104.468397 Z M471.780488,85.7755789 C471.780488,89.5608438 468.698867,92.6296122 464.897749,92.6296122 C461.09663,92.6296122 458.015009,89.5608438 458.015009,85.7755789 C458.015009,81.9903139 461.09663,78.9215455 464.897749,78.9215455 C468.698867,78.9215455 471.780488,81.9903139 471.780488,85.7755789 Z M490.551595,85.7755789 C490.551595,89.5608438 487.469974,92.6296122 483.668856,92.6296122 C479.867737,92.6296122 476.786116,89.5608438 476.786116,85.7755789 C476.786116,81.9903139 479.867737,78.9215455 483.668856,78.9215455 C487.469974,78.9215455 490.551595,81.9903139 490.551595,85.7755789 Z M471.780488,67.0827607 C471.780488,70.8680257 468.698867,73.936794 464.897749,73.936794 C461.09663,73.936794 458.015009,70.8680257 458.015009,67.0827607 C458.015009,63.2974958 461.09663,60.2287274 464.897749,60.2287274 C468.698867,60.2287274 471.780488,63.2974958 471.780488,67.0827607 Z M490.551595,67.0827607 C490.551595,70.8680257 487.469974,73.936794 483.668856,73.936794 C479.867737,73.936794 476.786116,70.8680257 476.786116,67.0827607 C476.786116,63.2974958 479.867737,60.2287274 483.668856,60.2287274 C487.469974,60.2287274 490.551595,63.2974958 490.551595,67.0827607 Z M471.780488,48.3899426 C471.780488,52.1752075 468.698867,55.2439759 464.897749,55.2439759 C461.09663,55.2439759 458.015009,52.1752075 458.015009,48.3899426 C458.015009,44.6046776 461.09663,41.5359092 464.897749,41.5359092 C468.698867,41.5359092 471.780488,44.6046776 471.780488,48.3899426 Z M490.551595,48.3899426 C490.551595,52.1752075 487.469974,55.2439759 483.668856,55.2439759 C479.867737,55.2439759 476.786116,52.1752075 476.786116,48.3899426 C476.786116,44.6046776 479.867737,41.5359092 483.668856,41.5359092 C487.469974,41.5359092 490.551595,44.6046776 490.551595,48.3899426 Z M471.780488,29.6971244 C471.780488,33.4823894 468.698867,36.5511577 464.897749,36.5511577 C461.09663,36.5511577 458.015009,33.4823894 458.015009,29.6971244 C458.015009,25.9118595 461.09663,22.8430911 464.897749,22.8430911 C468.698867,22.8430911 471.780488,25.9118595 471.780488,29.6971244 Z M490.551595,29.6971244 C490.551595,33.4823894 487.469974,36.5511577 483.668856,36.5511577 C479.867737,36.5511577 476.786116,33.4823894 476.786116,29.6971244 C476.786116,25.9118595 479.867737,22.8430911 483.668856,22.8430911 C487.469974,22.8430911 490.551595,25.9118595 490.551595,29.6971244 Z M506.819887,37.1742517 C506.819887,40.9595166 503.738267,44.028285 499.937148,44.028285 C496.13603,44.028285 493.054409,40.9595166 493.054409,37.1742517 C493.054409,33.3889867 496.13603,30.3202184 499.937148,30.3202184 C503.738267,30.3202184 506.819887,33.3889867 506.819887,37.1742517 Z M506.819887,14.7428699 C506.819887,18.5281349 503.738267,21.5969032 499.937148,21.5969032 C496.13603,21.5969032 493.054409,18.5281349 493.054409,14.7428699 C493.054409,10.957605 496.13603,7.88883658 499.937148,7.88883658 C503.738267,7.88883658 506.819887,10.957605 506.819887,14.7428699 Z M524.339587,9.75811839 C524.339587,13.5433833 521.257966,16.6121517 517.456848,16.6121517 C513.65573,16.6121517 510.574109,13.5433833 510.574109,9.75811839 C510.574109,5.97285344 513.65573,2.90408507 517.456848,2.90408507 C521.257966,2.90408507 524.339587,5.97285344 524.339587,9.75811839 Z M541.859287,11.0043063 C541.859287,14.7895712 538.777666,17.8583396 534.976548,17.8583396 C531.17543,17.8583396 528.093809,14.7895712 528.093809,11.0043063 C528.093809,7.21904132 531.17543,4.15027295 534.976548,4.15027295 C538.777666,4.15027295 541.859287,7.21904132 541.859287,11.0043063 Z M538.105066,29.6971244 C538.105066,33.4823894 535.023445,36.5511577 531.222326,36.5511577 C527.421208,36.5511577 524.339587,33.4823894 524.339587,29.6971244 C524.339587,25.9118595 527.421208,22.8430911 531.222326,22.8430911 C535.023445,22.8430911 538.105066,25.9118595 538.105066,29.6971244 Z M559.378987,19.7276214 C559.378987,23.5128864 556.297366,26.5816547 552.496248,26.5816547 C548.695129,26.5816547 545.613508,23.5128864 545.613508,19.7276214 C545.613508,15.9423565 548.695129,12.8735881 552.496248,12.8735881 C556.297366,12.8735881 559.378987,15.9423565 559.378987,19.7276214 Z M570.641651,33.4356881 C570.641651,37.220953 567.56003,40.2897214 563.758912,40.2897214 C559.957794,40.2897214 556.876173,37.220953 556.876173,33.4356881 C556.876173,29.6504231 559.957794,26.5816547 563.758912,26.5816547 C567.56003,26.5816547 570.641651,29.6504231 570.641651,33.4356881 Z M584.407129,22.2199972 C584.407129,26.0052621 581.325509,29.0740305 577.52439,29.0740305 C573.723272,29.0740305 570.641651,26.0052621 570.641651,22.2199972 C570.641651,18.4347322 573.723272,15.3659638 577.52439,15.3659638 C581.325509,15.3659638 584.407129,18.4347322 584.407129,22.2199972 Z M599.424015,12.2504941 C599.424015,16.0357591 596.342394,19.1045275 592.541276,19.1045275 C588.740157,19.1045275 585.658537,16.0357591 585.658537,12.2504941 C585.658537,8.4652292 588.740157,5.39646083 592.541276,5.39646083 C596.342394,5.39646083 599.424015,8.4652292 599.424015,12.2504941 Z M608.183865,29.6971244 C608.183865,33.4823894 605.102244,36.5511577 601.301126,36.5511577 C597.500007,36.5511577 594.418386,33.4823894 594.418386,29.6971244 C594.418386,25.9118595 597.500007,22.8430911 601.301126,22.8430911 C605.102244,22.8430911 608.183865,25.9118595 608.183865,29.6971244 Z M616.943715,8.51193052 C616.943715,12.2971955 613.862094,15.3659638 610.060976,15.3659638 C606.259857,15.3659638 603.178236,12.2971955 603.178236,8.51193052 C603.178236,4.72666557 606.259857,1.6578972 610.060976,1.6578972 C613.862094,1.6578972 616.943715,4.72666557 616.943715,8.51193052 Z M625.703565,29.6971244 C625.703565,33.4823894 622.621944,36.5511577 618.820826,36.5511577 C615.019707,36.5511577 611.938086,33.4823894 611.938086,29.6971244 C611.938086,25.9118595 615.019707,22.8430911 618.820826,22.8430911 C622.621944,22.8430911 625.703565,25.9118595 625.703565,29.6971244 Z M634.463415,13.496682 C634.463415,17.281947 631.381794,20.3507153 627.580675,20.3507153 C623.779557,20.3507153 620.697936,17.281947 620.697936,13.496682 C620.697936,9.71141707 623.779557,6.6426487 627.580675,6.6426487 C631.381794,6.6426487 634.463415,9.71141707 634.463415,13.496682 Z M649.4803,22.2199972 C649.4803,26.0052621 646.398679,29.0740305 642.597561,29.0740305 C638.796443,29.0740305 635.714822,26.0052621 635.714822,22.2199972 C635.714822,18.4347322 638.796443,15.3659638 642.597561,15.3659638 C646.398679,15.3659638 649.4803,18.4347322 649.4803,22.2199972 Z M640.72045,38.4204396 C640.72045,42.2057045 637.638829,45.2744729 633.837711,45.2744729 C630.036593,45.2744729 626.954972,42.2057045 626.954972,38.4204396 C626.954972,34.6351746 630.036593,31.5664062 633.837711,31.5664062 C637.638829,31.5664062 640.72045,34.6351746 640.72045,38.4204396 Z M660.742964,35.9280638 C660.742964,39.7133288 657.661343,42.7820971 653.860225,42.7820971 C650.059107,42.7820971 646.977486,39.7133288 646.977486,35.9280638 C646.977486,32.1427989 650.059107,29.0740305 653.860225,29.0740305 C657.661343,29.0740305 660.742964,32.1427989 660.742964,35.9280638 Z M648.228893,53.3746941 C648.228893,57.159959 645.147272,60.2287274 641.346154,60.2287274 C637.545036,60.2287274 634.463415,57.159959 634.463415,53.3746941 C634.463415,49.5894291 637.545036,46.5206608 641.346154,46.5206608 C645.147272,46.5206608 648.228893,49.5894291 648.228893,53.3746941 Z M649.228893,70.8213244 C649.228893,74.6065893 646.147272,77.6753577 642.346154,77.6753577 C638.545036,77.6753577 635.463415,74.6065893 635.463415,70.8213244 C635.463415,67.0360594 638.545036,63.967291 642.346154,63.967291 C646.147272,63.967291 649.228893,67.0360594 649.228893,70.8213244 Z M667,69.5751365 C667,73.3604014 663.918379,76.4291698 660.117261,76.4291698 C656.316142,76.4291698 653.234522,73.3604014 653.234522,69.5751365 C653.234522,65.7898715 656.316142,62.7211032 660.117261,62.7211032 C663.918379,62.7211032 667,65.7898715 667,69.5751365 Z M667,88.2679546 C667,92.0532196 663.918379,95.1219879 660.117261,95.1219879 C656.316142,95.1219879 653.234522,92.0532196 653.234522,88.2679546 C653.234522,84.4826897 656.316142,81.4139213 660.117261,81.4139213 C663.918379,81.4139213 667,84.4826897 667,88.2679546 Z M667,105.714585 C667,109.49985 663.918379,112.568618 660.117261,112.568618 C656.316142,112.568618 653.234522,109.49985 653.234522,105.714585 C653.234522,101.92932 656.316142,98.8605516 660.117261,98.8605516 C663.918379,98.8605516 667,101.92932 667,105.714585 Z M649.4803,88.2679546 C649.4803,92.0532196 646.398679,95.1219879 642.597561,95.1219879 C638.796443,95.1219879 635.714822,92.0532196 635.714822,88.2679546 C635.714822,84.4826897 638.796443,81.4139213 642.597561,81.4139213 C646.398679,81.4139213 649.4803,84.4826897 649.4803,88.2679546 Z M648.228893,105.714585 C648.228893,109.49985 645.147272,112.568618 641.346154,112.568618 C637.545036,112.568618 634.463415,109.49985 634.463415,105.714585 C634.463415,101.92932 637.545036,98.8605516 641.346154,98.8605516 C645.147272,98.8605516 648.228893,101.92932 648.228893,105.714585 Z M648.228893,123.161215 C648.228893,126.94648 645.147272,130.015248 641.346154,130.015248 C637.545036,130.015248 634.463415,126.94648 634.463415,123.161215 C634.463415,119.37595 637.545036,116.307182 641.346154,116.307182 C645.147272,116.307182 648.228893,119.37595 648.228893,123.161215 Z M667,52.1285062 C667,55.9137712 663.918379,58.9825395 660.117261,58.9825395 C656.316142,58.9825395 653.234522,55.9137712 653.234522,52.1285062 C653.234522,48.3432413 656.316142,45.2744729 660.117261,45.2744729 C663.918379,45.2744729 667,48.3432413 667,52.1285062 Z M593.166979,39.6666274 C593.166979,43.4518924 590.085358,46.5206608 586.28424,46.5206608 C582.483122,46.5206608 579.401501,43.4518924 579.401501,39.6666274 C579.401501,35.8813625 582.483122,32.8125941 586.28424,32.8125941 C590.085358,32.8125941 593.166979,35.8813625 593.166979,39.6666274 Z M560.630394,54.620882 C560.630394,58.4061469 557.548773,61.4749153 553.747655,61.4749153 C549.946536,61.4749153 546.864916,58.4061469 546.864916,54.620882 C546.864916,50.835617 549.946536,47.7668486 553.747655,47.7668486 C557.548773,47.7668486 560.630394,50.835617 560.630394,54.620882 Z M578.150094,49.6361304 C578.150094,53.4213954 575.068473,56.4901638 571.267355,56.4901638 C567.466236,56.4901638 564.384615,53.4213954 564.384615,49.6361304 C564.384615,45.8508655 567.466236,42.7820971 571.267355,42.7820971 C575.068473,42.7820971 578.150094,45.8508655 578.150094,49.6361304 Z M579.401501,123.161215 C579.401501,126.94648 576.31988,130.015248 572.518762,130.015248 C568.717643,130.015248 565.636023,126.94648 565.636023,123.161215 C565.636023,119.37595 568.717643,116.307182 572.518762,116.307182 C576.31988,116.307182 579.401501,119.37595 579.401501,123.161215 Z M579.401501,104.468397 C579.401501,108.253662 576.31988,111.32243 572.518762,111.32243 C568.717643,111.32243 565.636023,108.253662 565.636023,104.468397 C565.636023,100.683132 568.717643,97.6143637 572.518762,97.6143637 C576.31988,97.6143637 579.401501,100.683132 579.401501,104.468397 Z M579.401501,85.7755789 C579.401501,89.5608438 576.31988,92.6296122 572.518762,92.6296122 C568.717643,92.6296122 565.636023,89.5608438 565.636023,85.7755789 C565.636023,81.9903139 568.717643,78.9215455 572.518762,78.9215455 C576.31988,78.9215455 579.401501,81.9903139 579.401501,85.7755789 Z M579.401501,68.3289486 C579.401501,72.1142135 576.31988,75.1829819 572.518762,75.1829819 C568.717643,75.1829819 565.636023,72.1142135 565.636023,68.3289486 C565.636023,64.5436836 568.717643,61.4749153 572.518762,61.4749153 C576.31988,61.4749153 579.401501,64.5436836 579.401501,68.3289486 Z M560.630394,123.161215 C560.630394,126.94648 557.548773,130.015248 553.747655,130.015248 C549.946536,130.015248 546.864916,126.94648 546.864916,123.161215 C546.864916,119.37595 549.946536,116.307182 553.747655,116.307182 C557.548773,116.307182 560.630394,119.37595 560.630394,123.161215 Z M560.630394,106.960773 C560.630394,110.746038 557.548773,113.814806 553.747655,113.814806 C549.946536,113.814806 546.864916,110.746038 546.864916,106.960773 C546.864916,103.175508 549.946536,100.106739 553.747655,100.106739 C557.548773,100.106739 560.630394,103.175508 560.630394,106.960773 Z M560.630394,88.2679546 C560.630394,92.0532196 557.548773,95.1219879 553.747655,95.1219879 C549.946536,95.1219879 546.864916,92.0532196 546.864916,88.2679546 C546.864916,84.4826897 549.946536,81.4139213 553.747655,81.4139213 C557.548773,81.4139213 560.630394,84.4826897 560.630394,88.2679546 Z M560.630394,72.0675122 C560.630394,75.8527772 557.548773,78.9215455 553.747655,78.9215455 C549.946536,78.9215455 546.864916,75.8527772 546.864916,72.0675122 C546.864916,68.2822473 549.946536,65.2134789 553.747655,65.2134789 C557.548773,65.2134789 560.630394,68.2822473 560.630394,72.0675122 Z M553.121951,38.4204396 C553.121951,42.2057045 550.04033,45.2744729 546.239212,45.2744729 C542.438094,45.2744729 539.356473,42.2057045 539.356473,38.4204396 C539.356473,34.6351746 542.438094,31.5664062 546.239212,31.5664062 C550.04033,31.5664062 553.121951,34.6351746 553.121951,38.4204396 Z M521.836773,28.4509365 C521.836773,32.2362015 518.755152,35.3049699 514.954034,35.3049699 C511.152915,35.3049699 508.071295,32.2362015 508.071295,28.4509365 C508.071295,24.6656716 511.152915,21.5969032 514.954034,21.5969032 C518.755152,21.5969032 521.836773,24.6656716 521.836773,28.4509365 Z M471.780488,11.0043063 C471.780488,14.7895712 468.698867,17.8583396 464.897749,17.8583396 C461.09663,17.8583396 458.015009,14.7895712 458.015009,11.0043063 C458.015009,7.21904132 461.09663,4.15027295 464.897749,4.15027295 C468.698867,4.15027295 471.780488,7.21904132 471.780488,11.0043063 Z M490.551595,11.0043063 C490.551595,14.7895712 487.469974,17.8583396 483.668856,17.8583396 C479.867737,17.8583396 476.786116,14.7895712 476.786116,11.0043063 C476.786116,7.21904132 479.867737,4.15027295 483.668856,4.15027295 C487.469974,4.15027295 490.551595,7.21904132 490.551595,11.0043063 Z M420.472795,67.0827607 C420.472795,70.8680257 417.391175,73.936794 413.590056,73.936794 C409.788938,73.936794 406.707317,70.8680257 406.707317,67.0827607 C406.707317,63.2974958 409.788938,60.2287274 413.590056,60.2287274 C417.391175,60.2287274 420.472795,63.2974958 420.472795,67.0827607 Z M435.489681,87.0217667 C435.489681,90.8070317 432.40806,93.8758001 428.606942,93.8758001 C424.805824,93.8758001 421.724203,90.8070317 421.724203,87.0217667 C421.724203,83.2365018 424.805824,80.1677334 428.606942,80.1677334 C432.40806,80.1677334 435.489681,83.2365018 435.489681,87.0217667 Z M416.718574,85.7755789 C416.718574,89.5608438 413.636953,92.6296122 409.835835,92.6296122 C406.034717,92.6296122 402.953096,89.5608438 402.953096,85.7755789 C402.953096,81.9903139 406.034717,78.9215455 409.835835,78.9215455 C413.636953,78.9215455 416.718574,81.9903139 416.718574,85.7755789 Z M427.981238,103.222209 C427.981238,107.007474 424.899617,110.076242 421.098499,110.076242 C417.297381,110.076242 414.21576,107.007474 414.21576,103.222209 C414.21576,99.4369442 417.297381,96.3681758 421.098499,96.3681758 C424.899617,96.3681758 427.981238,99.4369442 427.981238,103.222209 Z M414.21576,116.930276 C414.21576,120.715541 411.134139,123.784309 407.333021,123.784309 C403.531902,123.784309 400.450281,120.715541 400.450281,116.930276 C400.450281,113.145011 403.531902,110.076242 407.333021,110.076242 C411.134139,110.076242 414.21576,113.145011 414.21576,116.930276 Z M404.204503,100.729833 C404.204503,104.515098 401.122882,107.583867 397.321764,107.583867 C393.520645,107.583867 390.439024,104.515098 390.439024,100.729833 C390.439024,96.9445684 393.520645,93.8758001 397.321764,93.8758001 C401.122882,93.8758001 404.204503,96.9445684 404.204503,100.729833 Z M397.947467,125.653591 C397.947467,129.438856 394.865846,132.507624 391.064728,132.507624 C387.26361,132.507624 384.181989,129.438856 384.181989,125.653591 C384.181989,121.868326 387.26361,118.799558 391.064728,118.799558 C394.865846,118.799558 397.947467,121.868326 397.947467,125.653591 Z M387.93621,108.206961 C387.93621,111.992226 384.854589,115.060994 381.053471,115.060994 C377.252353,115.060994 374.170732,111.992226 374.170732,108.206961 C374.170732,104.421696 377.252353,101.352927 381.053471,101.352927 C384.854589,101.352927 387.93621,104.421696 387.93621,108.206961 Z M369.165103,108.206961 C369.165103,111.992226 366.083482,115.060994 362.282364,115.060994 C358.481246,115.060994 355.399625,111.992226 355.399625,108.206961 C355.399625,104.421696 358.481246,101.352927 362.282364,101.352927 C366.083482,101.352927 369.165103,104.421696 369.165103,108.206961 Z M360.405253,125.653591 C360.405253,129.438856 357.323632,132.507624 353.522514,132.507624 C349.721396,132.507624 346.639775,129.438856 346.639775,125.653591 C346.639775,121.868326 349.721396,118.799558 353.522514,118.799558 C357.323632,118.799558 360.405253,121.868326 360.405253,125.653591 Z M342.885553,116.930276 C342.885553,120.715541 339.803933,123.784309 336.002814,123.784309 C332.201696,123.784309 329.120075,120.715541 329.120075,116.930276 C329.120075,113.145011 332.201696,110.076242 336.002814,110.076242 C339.803933,110.076242 342.885553,113.145011 342.885553,116.930276 Z M330.371482,103.222209 C330.371482,107.007474 327.289861,110.076242 323.488743,110.076242 C319.687625,110.076242 316.606004,107.007474 316.606004,103.222209 C316.606004,99.4369442 319.687625,96.3681758 323.488743,96.3681758 C327.289861,96.3681758 330.371482,99.4369442 330.371482,103.222209 Z M351.645403,100.729833 C351.645403,104.515098 348.563782,107.583867 344.762664,107.583867 C340.961546,107.583867 337.879925,104.515098 337.879925,100.729833 C337.879925,96.9445684 340.961546,93.8758001 344.762664,93.8758001 C348.563782,93.8758001 351.645403,96.9445684 351.645403,100.729833 Z M377.924953,128.145967 C377.924953,131.931232 374.843332,135 371.042214,135 C367.241096,135 364.159475,131.931232 364.159475,128.145967 C364.159475,124.360702 367.241096,121.291933 371.042214,121.291933 C374.843332,121.291933 377.924953,124.360702 377.924953,128.145967 Z M271.555347,67.0827607 C271.555347,70.8680257 268.473726,73.936794 264.672608,73.936794 C260.87149,73.936794 257.789869,70.8680257 257.789869,67.0827607 C257.789869,63.2974958 260.87149,60.2287274 264.672608,60.2287274 C268.473726,60.2287274 271.555347,63.2974958 271.555347,67.0827607 Z M267.801126,49.6361304 C267.801126,53.4213954 264.719505,56.4901638 260.918386,56.4901638 C257.117268,56.4901638 254.035647,53.4213954 254.035647,49.6361304 C254.035647,45.8508655 257.117268,42.7820971 260.918386,42.7820971 C264.719505,42.7820971 267.801126,45.8508655 267.801126,49.6361304 Z M256.538462,34.6818759 C256.538462,38.4671409 253.456841,41.5359092 249.655722,41.5359092 C245.854604,41.5359092 242.772983,38.4671409 242.772983,34.6818759 C242.772983,30.896611 245.854604,27.8278426 249.655722,27.8278426 C253.456841,27.8278426 256.538462,30.896611 256.538462,34.6818759 Z M265.298311,18.4814335 C265.298311,22.2666985 262.216691,25.3354669 258.415572,25.3354669 C254.614454,25.3354669 251.532833,22.2666985 251.532833,18.4814335 C251.532833,14.6961686 254.614454,11.6274002 258.415572,11.6274002 C262.216691,11.6274002 265.298311,14.6961686 265.298311,18.4814335 Z M249.030019,9.75811839 C249.030019,13.5433833 245.948398,16.6121517 242.14728,16.6121517 C238.346161,16.6121517 235.26454,13.5433833 235.26454,9.75811839 C235.26454,5.97285344 238.346161,2.90408507 242.14728,2.90408507 C245.948398,2.90408507 249.030019,5.97285344 249.030019,9.75811839 Z M239.018762,25.9585608 C239.018762,29.7438257 235.937141,32.8125941 232.136023,32.8125941 C228.334904,32.8125941 225.253283,29.7438257 225.253283,25.9585608 C225.253283,22.1732958 228.334904,19.1045275 232.136023,19.1045275 C235.937141,19.1045275 239.018762,22.1732958 239.018762,25.9585608 Z M279.06379,32.1895002 C279.06379,35.9747651 275.982169,39.0435335 272.181051,39.0435335 C268.379932,39.0435335 265.298311,35.9747651 265.298311,32.1895002 C265.298311,28.4042352 268.379932,25.3354669 272.181051,25.3354669 C275.982169,25.3354669 279.06379,28.4042352 279.06379,32.1895002 Z M286.572233,48.3899426 C286.572233,52.1752075 283.490612,55.2439759 279.689493,55.2439759 C275.888375,55.2439759 272.806754,52.1752075 272.806754,48.3899426 C272.806754,44.6046776 275.888375,41.5359092 279.689493,41.5359092 C283.490612,41.5359092 286.572233,44.6046776 286.572233,48.3899426 Z M187.711069,67.0827607 C187.711069,70.8680257 184.629449,73.936794 180.82833,73.936794 C177.027212,73.936794 173.945591,70.8680257 173.945591,67.0827607 C173.945591,63.2974958 177.027212,60.2287274 180.82833,60.2287274 C184.629449,60.2287274 187.711069,63.2974958 187.711069,67.0827607 Z M133.900563,89.5141425 C133.900563,93.2994075 130.818942,96.3681758 127.017824,96.3681758 C123.216705,96.3681758 120.135084,93.2994075 120.135084,89.5141425 C120.135084,85.7288776 123.216705,82.6601092 127.017824,82.6601092 C130.818942,82.6601092 133.900563,85.7288776 133.900563,89.5141425 Z M133.900563,106.960773 C133.900563,110.746038 130.818942,113.814806 127.017824,113.814806 C123.216705,113.814806 120.135084,110.746038 120.135084,106.960773 C120.135084,103.175508 123.216705,100.106739 127.017824,100.106739 C130.818942,100.106739 133.900563,103.175508 133.900563,106.960773 Z M133.900563,123.161215 C133.900563,126.94648 130.818942,130.015248 127.017824,130.015248 C123.216705,130.015248 120.135084,126.94648 120.135084,123.161215 C120.135084,119.37595 123.216705,116.307182 127.017824,116.307182 C130.818942,116.307182 133.900563,119.37595 133.900563,123.161215 Z M132.649156,53.3746941 C132.649156,57.159959 129.567535,60.2287274 125.766417,60.2287274 C121.965298,60.2287274 118.883677,57.159959 118.883677,53.3746941 C118.883677,49.5894291 121.965298,46.5206608 125.766417,46.5206608 C129.567535,46.5206608 132.649156,49.5894291 132.649156,53.3746941 Z M82.5928705,28.4509365 C82.5928705,32.2362015 79.5112496,35.3049699 75.7101313,35.3049699 C71.909013,35.3049699 68.8273921,32.2362015 68.8273921,28.4509365 C68.8273921,24.6656716 71.909013,21.5969032 75.7101313,21.5969032 C79.5112496,21.5969032 82.5928705,24.6656716 82.5928705,28.4509365 Z M13.7654784,12.2504941 C13.7654784,16.0357591 10.6838575,19.1045275 6.88273921,19.1045275 C3.08162091,19.1045275 0,16.0357591 0,12.2504941 C0,8.4652292 3.08162091,5.39646083 6.88273921,5.39646083 C10.6838575,5.39646083 13.7654784,8.4652292 13.7654784,12.2504941 Z M32.5365854,87.0217667 C32.5365854,90.8070317 29.4549645,93.8758001 25.6538462,93.8758001 C21.8527279,93.8758001 18.7711069,90.8070317 18.7711069,87.0217667 C18.7711069,83.2365018 21.8527279,80.1677334 25.6538462,80.1677334 C29.4549645,80.1677334 32.5365854,83.2365018 32.5365854,87.0217667 Z M13.7654784,87.0217667 C13.7654784,90.8070317 10.6838575,93.8758001 6.88273921,93.8758001 C3.08162091,93.8758001 0,90.8070317 0,87.0217667 C0,83.2365018 3.08162091,80.1677334 6.88273921,80.1677334 C10.6838575,80.1677334 13.7654784,83.2365018 13.7654784,87.0217667 Z M32.5365854,105.714585 C32.5365854,109.49985 29.4549645,112.568618 25.6538462,112.568618 C21.8527279,112.568618 18.7711069,109.49985 18.7711069,105.714585 C18.7711069,101.92932 21.8527279,98.8605516 25.6538462,98.8605516 C29.4549645,98.8605516 32.5365854,101.92932 32.5365854,105.714585 Z M13.7654784,105.714585 C13.7654784,109.49985 10.6838575,112.568618 6.88273921,112.568618 C3.08162091,112.568618 0,109.49985 0,105.714585 C0,101.92932 3.08162091,98.8605516 6.88273921,98.8605516 C10.6838575,98.8605516 13.7654784,101.92932 13.7654784,105.714585 Z M32.5365854,123.161215 C32.5365854,126.94648 29.4549645,130.015248 25.6538462,130.015248 C21.8527279,130.015248 18.7711069,126.94648 18.7711069,123.161215 C18.7711069,119.37595 21.8527279,116.307182 25.6538462,116.307182 C29.4549645,116.307182 32.5365854,119.37595 32.5365854,123.161215 Z M13.7654784,123.161215 C13.7654784,126.94648 10.6838575,130.015248 6.88273921,130.015248 C3.08162091,130.015248 0,126.94648 0,123.161215 C0,119.37595 3.08162091,116.307182 6.88273921,116.307182 C10.6838575,116.307182 13.7654784,119.37595 13.7654784,123.161215 Z" id="Combined-Shape"></path>
                <path d="M698.282669,106.690178 L702.241673,106.690178 C703.45926,106.6587 704.43702,106.378898 705.18602,105.850772 C705.927642,105.322646 706.300297,104.630137 706.300297,103.769746 C706.300297,102.601574 705.968228,101.776159 705.311469,101.290003 C704.65102,100.80035 703.477708,100.559021 701.784155,100.559021 L698.282669,100.559021 L698.282669,106.690178 Z M698.282669,109.767998 L698.282669,117.899738 L694.70739,117.899738 L694.70739,97.4812008 L701.706672,97.4812008 C704.296813,97.4812008 706.303987,98.0058292 707.735574,99.055086 C709.163472,100.104343 709.879266,101.63276 709.879266,103.636841 C709.879266,105.605946 708.794507,107.116876 706.632367,108.15564 C708.694886,108.956572 709.735369,110.593413 709.750128,113.062664 L709.750128,114.531623 C709.750128,115.909647 709.894025,116.902944 710.181818,117.511513 L710.181818,117.899738 L706.503228,117.899738 C706.26709,117.322646 706.149021,116.290877 706.149021,114.807928 C706.149021,113.324978 706.123194,112.4471 706.071538,112.174293 C705.802193,110.635383 704.691606,109.830953 702.747156,109.767998 L698.282669,109.767998 Z M686.91483,107.952783 C686.91483,110.708831 687.593728,113.258525 688.947832,115.605363 C690.298247,117.955698 692.139387,119.791897 694.463872,121.120956 C696.792047,122.450015 699.304704,123.114544 702.012914,123.114544 C704.735882,123.114544 707.263298,122.439522 709.598852,121.085981 C711.934406,119.73244 713.764477,117.892743 715.092754,115.570388 C716.421031,113.248033 717.08517,110.708831 717.08517,107.952783 C717.08517,105.214223 716.421031,102.685514 715.092754,100.370154 C713.764477,98.058292 711.934406,96.2290877 709.598852,94.8930341 C707.263298,93.5534829 704.735882,92.8854561 702.012914,92.8854561 C699.304704,92.8854561 696.784667,93.5464879 694.452803,94.8685514 C692.117249,96.190615 690.279799,98.0198193 688.933074,100.359662 C687.590038,102.696007 686.91483,105.231711 686.91483,107.952783 Z M684,107.966774 C684,104.72457 684.789587,101.720198 686.372451,98.9466628 C687.951624,96.1731274 690.143282,93.9871758 692.943733,92.3923055 C695.744184,90.7974352 698.766014,90 702.012914,90 C705.259813,90 708.277954,90.7974352 711.071026,92.3923055 C713.860408,93.9871758 716.044686,96.1731274 717.627549,98.9466628 C719.210413,101.720198 720,104.72457 720,107.966774 C720,111.125036 719.23993,114.080443 717.716101,116.839988 C716.195962,119.596036 714.033822,121.813465 711.237061,123.488779 C708.43292,125.164092 705.359434,126 702.012914,126 C698.681152,126 695.615046,125.171087 692.818284,123.513261 C690.017833,121.851938 687.848314,119.645001 686.306037,116.888954 C684.767449,114.129408 684,111.156514 684,107.966774 Z" id="Fill-312"></path>
            </g>
        </g>
    </g>
</svg>