<svg version="1.1" id="illustration" xmlns="http://www.w3.org/2000/svg" x="0" y="0" viewBox="0 0 706 904" xml:space="preserve"><style>.st5{fill:#22d3ee}.st6{opacity:.15;fill:#fff;enable-background:new}.st8{fill:#99f6e4}</style><linearGradient id="SVGID_1_" gradientUnits="userSpaceOnUse" x1="646.559" y1="34.709" x2="340.514" y2="313.363" gradientTransform="translate(0 112)"><stop offset="0" stop-color="#fff"/><stop offset="1" stop-color="#fff" stop-opacity="0"/></linearGradient><path d="M636.7 431.2c26-22.3 42-63.8 42-119.8 0-115-67.4-247.2-150.4-294.2-83.1-47.1-149.3 8.1-148.5 124 .4 55.1 16.2 114.2 41.7 165.6 19.7 39.6 32.6 83.8 36.9 124.9 1.7 17.6 12.2 35.8 24.3 42.8l92.8 53.5c12.2 7.1 22.6.7 24.5-14.8 4.2-36.1 16.9-64.9 36.7-82z" opacity=".07" fill="url(#SVGID_1_)"/><linearGradient id="SVGID_2_" gradientUnits="userSpaceOnUse" x1="804.939" y1="208.607" x2="498.894" y2="487.262" gradientTransform="translate(0 112)"><stop offset="0" stop-color="#fff"/><stop offset="1" stop-color="#fff" stop-opacity="0"/></linearGradient><path d="M598.2 621.2v-24.6c0-13.2-7.6-28.1-17.1-33.8l-104.2-60.2c-9.5-5.5-17.1.7-17.1 13.9v24.6c0 19.8 10.4 41.8 24 52.6l90.6 52.3c13.4 5.1 23.8-5.2 23.8-24.8z" opacity=".07" fill="url(#SVGID_2_)"/><linearGradient id="SVGID_3_" gradientUnits="userSpaceOnUse" x1="596.505" y1="74.451" x2="290.46" y2="353.105" gradientTransform="translate(0 112)"><stop offset="0" stop-color="#fff"/><stop offset="1" stop-color="#fff" stop-opacity="0"/></linearGradient><path d="M586.6 471c26-22.3 42-63.8 42-119.8 0-115-67.4-247.2-150.4-294.2C395 9.9 328.9 65.1 329.7 181c.4 55.1 16.2 114.2 41.7 165.6 19.7 39.6 32.6 83.8 36.9 124.9 1.7 17.6 12.2 35.8 24.3 42.8l92.8 53.5c12.2 7.1 22.6.7 24.5-14.8 4.3-36.1 17-65 36.7-82z" opacity=".4" fill="url(#SVGID_3_)"/><linearGradient id="SVGID_4_" gradientUnits="userSpaceOnUse" x1="754.939" y1="248.407" x2="448.895" y2="527.062" gradientTransform="translate(0 112)"><stop offset="0" stop-color="#fff"/><stop offset="1" stop-color="#fff" stop-opacity="0"/></linearGradient><path d="M548.2 661v-24.6c0-13.2-7.6-28.1-17.1-33.8l-104.2-60.2c-9.5-5.5-17.1.7-17.1 13.9v24.6c0 19.8 10.4 41.8 24 52.6l90.6 52.3c13.4 5.1 23.8-5.2 23.8-24.8z" opacity=".4" fill="url(#SVGID_4_)"/><linearGradient id="SVGID_5_" gradientUnits="userSpaceOnUse" x1="264.391" y1="495.454" x2="110.741" y2="615.758" gradientTransform="translate(0 112)"><stop offset="0" stop-color="#fff"/><stop offset="1" stop-color="#fff" stop-opacity="0"/></linearGradient><path d="M329.3 669.6L31.7 497.8l.1 155.1 271.3 156.6 26.3 38.9-.1-178.8z" opacity=".3" fill="url(#SVGID_5_)"/><path class="st5" d="M0 558.3v-42.1L112.4 581v42.1L0 558.3z"/><path class="st6" d="M252.8 663.2l-65.2-37.6v13.6l65.2 37.6v-13.6zm0 27.3L127.1 618v13.6l125.7 72.5v-13.6zm0 27.2l-152.3-87.9v13.6l152.3 87.9v-13.6z"/><path class="st5" d="M268.9 686.7c0 12.8 7.6 27.5 16.9 32.9s16.9-.6 16.9-13.4-7.6-27.5-16.9-32.9c-9.4-5.4-16.9.6-16.9 13.4z"/><linearGradient id="SVGID_6_" gradientUnits="userSpaceOnUse" x1="480.304" y1="469.351" x2="518.774" y2="781.38" gradientTransform="translate(0 112)"><stop offset="0" stop-color="#fff"/><stop offset="1" stop-color="#fff" stop-opacity="0"/></linearGradient><path d="M352.5 576.3L650 748.1l.1 155.1-271.3-156.6-26.2 8.6-.1-178.9z" opacity=".3" fill="url(#SVGID_6_)"/><path class="st8" d="M563.5 775.4v-42.1l112.3 64.8v42.1l-112.3-64.8z"/><path class="st6" d="M429 658.3l65.2 37.6v13.6L429 671.9v-13.6zm0 27.2l117.7 67.9V767L429 699.2v-13.7zm0 27.3l152.3 87.9v13.6L429 726.4v-13.6z"/><path class="st8" d="M412.9 663.2c0 12.8-7.6 18.8-16.9 13.4-9.3-5.4-16.9-20.1-16.9-32.9 0-12.8 7.6-18.8 16.9-13.4 9.4 5.4 16.9 20.1 16.9 32.9z"/><path class="st6" d="M684.5 563.3l7.5 16.6-63.2 14.7 65.7 91.5-7.5 7.9-80.7-112.5 78.2-18.2z"/><path class="st5" d="M705.4 581.9c0 12.9-7.6 19-16.9 13.7-9.3-5.4-16.9-20.2-16.9-33.2 0-12.9 7.6-19 16.9-13.7 9.3 5.4 16.9 20.3 16.9 33.2zm0 114.6c0 12.9-7.6 19-16.9 13.7-9.3-5.4-16.9-20.2-16.9-33.2 0-12.9 7.6-19 16.9-13.7 9.3 5.5 16.9 20.3 16.9 33.2z"/><path class="st8" d="M633.3 596.1c0 12.9-7.6 19-16.9 13.7-9.3-5.4-16.9-20.2-16.9-33.2 0-12.9 7.6-19 16.9-13.7 9.3 5.4 16.9 20.3 16.9 33.2z"/><linearGradient id="SVGID_7_" gradientUnits="userSpaceOnUse" x1="347.322" y1="168.967" x2="198.555" y2="426.706" gradientTransform="translate(0 112)"><stop offset="0" stop-color="#fff"/><stop offset="1" stop-color="#fff" stop-opacity="0"/></linearGradient><path d="M161.8 253.6l167.6 96.7v310.5l-167.6-96.7V253.6z" opacity=".3" fill="url(#SVGID_7_)"/><path class="st6" d="M178.3 437.9l134.6 77.7v13.6l-134.6-77.7v-13.6zm9.4 32l115.7 66.8v13.6l-115.7-66.8v-13.6z"/><path class="st8" d="M236.6 525.4L120 458.1v34.7l116.6 67.3v-34.7zm28.1-149.7c0 15-8.7 22.1-19.4 15.9-10.7-6.3-19.4-23.5-19.4-38.6 0-15 8.7-22.1 19.4-15.9 10.7 6.3 19.4 23.6 19.4 38.6zm-19.5 28c-17.3-10.1-31.6-.6-34.1 21.1-.4 3.8 2.4 8.8 5.9 10.8l56.4 33c3.5 2 6.3.4 5.9-3.9-2.4-24.8-16.8-50.9-34.1-61z"/><linearGradient id="SVGID_8_" gradientUnits="userSpaceOnUse" x1="420.782" y1="715.211" x2="376.019" y2="753.881" gradientTransform="translate(0 112)"><stop offset="0" stop-color="#fff"/><stop offset="1" stop-color="#fff" stop-opacity="0"/></linearGradient><path d="M408 884.6c-60.5-77.8-16.7-106 0-60.4 16.7-26.2 60.5 52.4 0 60.4z" opacity=".2" fill="url(#SVGID_8_)"/></svg>