<svg xmlns="http://www.w3.org/2000/svg" preserveAspectRatio="xMidYMid" style="background-image:none;background-position:initial;background-repeat:initial" viewBox="120 45 300 70"><defs><filter id="a"><feFlood flood-color="#565654" result="flood-1"/><feMorphology in="SourceAlpha" radius="1" result="erode"/><feComposite in="flood-1" in2="erode" operator="in" result="comp1"/><feConvolveMatrix divisor="1" in="comp1" kernelMatrix="0 0 1 1" order="2,2" result="convolve"/><feOffset dx="-2" in="convolve" result="extrude"/><feComposite in="flood-1" in2="extrude" operator="in" result="comp-extrude"/><feFlood flood-color="#a5b5bc" result="flood-2"/><feComposite in="flood-2" in2="SourceAlpha" operator="in" result="comp2"/><feMorphology in="comp2" operator="dilate" radius="1" result="dilate"/><feOffset dx="-3" in="dilate" result="offset"/><feGaussianBlur in="offset" result="blur" stdDeviation="5.8"/><feComponentTransfer in="blur" result="shadow"><feFuncA intercept="-.2" slope=".8" type="linear"/></feComponentTransfer><feMerge><feMergeNode in="shadow"/><feMergeNode in="comp-extrude"/><feMergeNode in="SourceGraphic"/></feMerge></filter></defs><g filter="url(#a)"><path fill="#fff" d="M144.545 103.638l15.26-56.7h6.51l-15.33 56.7h-6.44zm25.2-39.34v-17.36h6.79l-2.73 17.36h-4.06zm11.41 39.27v-56.7h7.49v33.81l10.92-17.5h7.84l-9.52 15.82 9.24 24.64h-7.49l-7.56-20.72-3.43 5.18v15.47h-7.49zm30.59.07v-56.7h7.49v56.7h-7.49zm26.53.56q-4.69 0-7.28-1.79-2.59-1.78-3.64-5.28-1.05-3.5-1.05-9.1v-9.24q0-8.4 2.63-12.29 2.62-3.88 9.34-3.88 4.9 0 7.39 2.03 2.48 2.03 3.29 5.7.8 3.68.8 9.91v3.29h-15.96v8.12q0 3.71 1.09 5.35 1.08 1.65 3.46 1.65t3.22-1.65q.84-1.64.84-5v-2.45h7.28v1.54q0 6.37-2.73 9.73-2.73 3.36-8.68 3.36zm-4.48-24.71h8.61v-3.64q0-4.13-.8-5.92-.81-1.78-3.4-1.78-1.82 0-2.77.84-.94.84-1.29 2.76-.35 1.93-.35 5.57v2.17zm28 24.15l-7.98-40.46h7.56l4.97 32.55 5.04-32.55h7.28l-7.7 40.46h-9.17zm32.41.63q-4.9 0-7.39-2.03-2.48-2.03-3.29-5.71-.8-3.67-.8-9.9v-3.29h15.96v-7.84q0-3.57-.88-5.46-.87-1.89-3.53-1.89-2.45 0-3.32 1.64-.88 1.65-.88 4.94v2.45h-7.28v-1.54q0-6.3 2.73-9.66 2.73-3.36 8.68-3.36 4.69 0 7.28 1.78 2.59 1.79 3.64 5.29 1.05 3.5 1.05 9.03v9.38q0 8.4-2.63 12.28-2.62 3.89-9.34 3.89zm.07-5.53q1.82 0 2.76-.84.95-.84 1.3-2.77.35-1.92.35-5.56v-2.17h-8.61v3.64q0 4.13.8 5.91.81 1.79 3.4 1.79zm18.9 4.9v-40.46h7.49v5.74q2.1-3.43 4.3-4.83 2.21-1.4 4.66-1.4.63 0 1.19.07v8.26q-2.24-.84-4.13-.84-1.82 0-3.26.87-1.43.88-2.76 3.05v29.54h-7.49zm20.51 0l15.26-56.7h6.51l-15.33 56.7h-6.44z"/></g></svg>